<?xml version="1.0" standalone="no"?>
<!DOCTYPE svg PUBLIC "-//W3C//DTD SVG 1.1//EN" "http://www.w3.org/Graphics/SVG/1.1/DTD/svg11.dtd" >
<!--
2013-9-30: Created.
-->
<svg>
<metadata>
Created by iconfont
</metadata>
<defs>

<font id="iconfont" horiz-adv-x="1024" >
  <font-face
    font-family="iconfont"
    font-weight="500"
    font-stretch="normal"
    units-per-em="1024"
    ascent="896"
    descent="-128"
  />
    <missing-glyph />
    
    <glyph glyph-name="x" unicode="x" horiz-adv-x="1001"
d="M281 543q-27 -1 -53 -1h-83q-18 0 -36.5 -6t-32.5 -18.5t-23 -32t-9 -45.5v-76h912v41q0 16 -0.5 30t-0.5 18q0 13 -5 29t-17 29.5t-31.5 22.5t-49.5 9h-133v-97h-438v97zM955 310v-52q0 -23 0.5 -52t0.5 -58t-10.5 -47.5t-26 -30t-33 -16t-31.5 -4.5q-14 -1 -29.5 -0.5
t-29.5 0.5h-32l-45 128h-439l-44 -128h-29h-34q-20 0 -45 1q-25 0 -41 9.5t-25.5 23t-13.5 29.5t-4 30v167h911zM163 247q-12 0 -21 -8.5t-9 -21.5t9 -21.5t21 -8.5q13 0 22 8.5t9 21.5t-9 21.5t-22 8.5zM316 123q-8 -26 -14 -48q-5 -19 -10.5 -37t-7.5 -25t-3 -15t1 -14.5
t9.5 -10.5t21.5 -4h37h67h81h80h64h36q23 0 34 12t2 38q-5 13 -9.5 30.5t-9.5 34.5q-5 19 -11 39h-368zM336 498v228q0 11 2.5 23t10 21.5t20.5 15.5t34 6h188q31 0 51.5 -14.5t20.5 -52.5v-227h-327z" />
    

    
    <glyph glyph-name="dingdan" unicode="&#59073;" d="M857.509203-212C857.509203-212 166.490797-212 166.490797-212 79.261523-212 32.015-156.049748 32.015-77.6042 32.015-77.6042 32.015 649.605075 32.015 649.605075 32.015 723.714759 70.829787 779.985 160.011 779.985 160.011 779.985 240.0085 779.985 240.0085 779.985 257.991938 779.985 264.63173 769.42533 264.63173 751.457892 264.63173 733.490453 257.991938 715.987 240.0085 715.987 240.0085 715.987 160.011 715.987 160.011 715.987 121.772195 715.987 96.013 690.211806 96.013 651.989 96.013 651.989 96.013-83.988 96.013-83.988 96.013-122.194806 137.771695-147.986 176.0105-147.986 176.0105-147.986 863.989-147.986 863.989-147.986 902.227805-147.986 927.987-122.194806 927.987-83.988 927.987-83.988 927.987 651.989 927.987 651.989 927.987 690.211806 902.227805 715.987 863.989 715.987 863.989 715.987 799.991 715.987 799.991 715.987 782.007562 715.987 760.840224 733.490453 760.840224 751.457892 760.840224 769.42533 782.007562 779.985 799.991 779.985 799.991 779.985 863.989 779.985 863.989 779.985 947.362395 779.985 991.985 723.714759 991.985 649.605075 991.985 649.605075 991.985-77.6042 991.985-77.6042 991.985-165.489453 943.570513-212 857.509203-212ZM271.975501 155.812506C271.975501 155.812506 752.424487 155.812506 752.424487 155.812506 769.959939 155.812506 784.183494 141.572951 784.183494 124.0055 784.183494 106.454048 769.959939 92.214493 752.424487 92.214493 752.424487 92.214493 271.975501 92.214493 271.975501 92.214493 254.424049 92.214493 240.200494 106.454048 240.200494 124.0055 240.200494 141.572951 254.424049 155.812506 271.975501 155.812506ZM271.975501 347.806506C271.975501 347.806506 752.424487 347.806506 752.424487 347.806506 769.959939 347.806506 784.183494 333.566951 784.183494 315.9995 784.183494 298.448048 769.959939 284.208493 752.424487 284.208493 752.424487 284.208493 271.975501 284.208493 271.975501 284.208493 254.424049 284.208493 240.200494 298.448048 240.200494 315.9995 240.200494 333.566951 254.424049 347.806506 271.975501 347.806506ZM784.183494 491.994C784.183494 474.442549 769.959939 460.202994 752.424487 460.202994 752.424487 460.202994 271.975501 460.202994 271.975501 460.202994 254.424049 460.202994 240.200494 474.442549 240.200494 491.994 240.200494 509.561451 254.424049 523.801006 271.975501 523.801006 271.975501 523.801006 752.424487 523.801006 752.424487 523.801006 769.959939 523.801006 784.183494 509.561451 784.183494 491.994ZM622.988532 700.131496C622.988532 700.131496 400.867473 700.131496 400.867473 700.131496 373.76432 700.131496 351.797006 725.170713 351.797006 756.065748 351.797006 786.960782 373.76432 812 400.867473 812 400.867473 812 622.988532 812 622.988532 812 650.091685 812 672.058998 786.960782 672.058998 756.065748 672.058998 725.170713 650.091685 700.131496 622.988532 700.131496Z"  horiz-adv-x="1024" />

    
    <glyph glyph-name="quxiao" unicode="&#58886;" d="M909.416 470.19l0-567.04L114.584-96.85 114.584 696.85l675.624 0 0 80L94.584 776.85c-33.084 0-60-26.916-60-60l0-833.7c0-33.084 26.916-60 60-60l834.834 0c33.084 0 60 26.916 60 60l0 587.04L909.416 470.19zM731.392 475.386c0 12.45-4.84 24.146-13.626 32.934-8.79 8.788-20.484 13.628-32.936 13.628-12.45 0-24.146-4.84-32.934-13.628l-141.314-141.314-141.314 141.314c-8.788 8.788-20.484 13.628-32.934 13.628s-24.146-4.838-32.934-13.626c-8.788-8.788-13.626-20.484-13.626-32.934 0-12.45 4.838-24.146 13.626-32.934l141.314-141.316L303.4 159.822c-18.158-18.158-18.158-47.708 0-65.868 8.788-8.788 20.484-13.626 32.934-13.626s24.146 4.84 32.934 13.626l141.314 141.314 141.314-141.312c8.788-8.79 20.482-13.628 32.934-13.628s24.146 4.84 32.934 13.626c8.79 8.788 13.628 20.482 13.628 32.934s-4.84 24.146-13.626 32.936l-141.314 141.312 141.314 141.314C726.552 451.24 731.392 462.936 731.392 475.386z"  horiz-adv-x="1024" />

    
    <glyph glyph-name="mima" unicode="&#58984;" d="M839.54036 728.366208 419.201989 308.080026c-95.782483 60.764945-216.879516 55.598272-292.120151-19.535939-88.697111-88.798419-79.914074-241.380536 19.586081-340.92981 99.550297-99.599416 252.17744-108.329241 340.92367-19.583011 75.442226 75.492368 80.394005 197.212594 18.804275 293.1629l310.794465 310.739207 48.412616-48.466851c7.640004-7.693216 19.885909-7.854898 27.374464-0.36225l9.029654 9.023514c7.438413 7.440459 7.27673 19.684318-0.36225 27.378557l-8.691963 8.634658c-1.886977 1.937119-1.926886 4.984524-0.091074 6.872524l7.850805 7.847735c1.89107 1.834788 4.937452 1.794879 6.872524-0.091074l8.686846-8.686846c7.589862-7.641027 19.883863-7.803733 27.328415-0.361227l9.020444 9.023514c7.443529 7.440459 7.281847 19.682271-0.360204 27.273157l-48.41364 48.51904 22.678512 22.784936c6.628978 6.575766 6.435573 17.371646-0.319272 24.124444l-62.597687 62.599733C856.85777 734.797687 846.117149 734.939927 839.54036 728.366208zM429.916005-14.293149c-58.468646-58.570977-161.13798-51.118238-228.706889 16.448624-67.571978 67.569932-74.916247 170.141028-16.448624 228.655723 58.56893 58.519812 161.136957 51.121308 228.709959-16.447601C481.037313 146.742501 488.381581 44.17652 429.916005-14.293149z"  horiz-adv-x="1024" />

    
    <glyph glyph-name="tianjiazhuanhuan" unicode="&#58992;" d="M512-206.360686C232.339749-206.360686 5.640046 20.339749 5.640046 300S232.339749 806.359954 512 806.359954 1018.360686 579.660251 1018.360686 300 791.660251-206.360686 512-206.360686zM765.180343 350.636069 562.636069 350.636069 562.636069 553.180343 461.363931 553.180343l0-202.544274L258.819657 350.636069l0-101.272137 202.544274 0 0-202.544274 101.272137 0L562.636069 249.363931l202.544274 0L765.180343 350.636069z"  horiz-adv-x="1024" />

    
    <glyph glyph-name="refresh" unicode="&#58947;" d="M866.133333 257.333333M469.333333-84c-213.333333 0-384 170.666667-384 384 0 102.4 38.4 200.533333 110.933333 273.066667C268.8 645.6 366.933333 684 469.333333 684c213.333333 0 384-170.666667 384-384 0-25.6-17.066667-42.666667-42.666667-42.666667s-42.666667 17.066667-42.666667 42.666667c0 166.4-132.266667 298.666667-298.666667 298.666667C388.266667 598.666667 315.733333 568.8 256 513.333333c-55.466667-55.466667-85.333333-132.266667-85.333333-213.333333 0-166.4 132.266667-298.666667 298.666667-298.666667 81.066667 0 153.6 29.866667 213.333333 85.333333 17.066667 17.066667 42.666667 17.066667 59.733333 0 17.066667-17.066667 17.066667-42.666667 0-59.733333C669.866667-45.6 571.733333-84 469.333333-84zM810.666667 257.333333c-8.533333 0-17.066667 4.266667-25.6 8.533333L640 372.533333c-17.066667 12.8-21.333333 42.666667-8.533333 59.733333 12.8 17.066667 38.4 21.333333 59.733333 8.533333l145.066667-106.666667c17.066667-12.8 21.333333-42.666667 8.533333-59.733333C836.266667 261.6 823.466667 257.333333 810.666667 257.333333zM810.666667 257.333333c-8.533333 0-17.066667 4.266667-25.6 8.533333-17.066667 12.8-21.333333 42.666667-8.533333 59.733333L883.2 470.666667c12.8 17.066667 42.666667 21.333333 59.733333 8.533333 17.066667-12.8 21.333333-42.666667 8.533333-59.733333l-106.666667-145.066667C836.266667 261.6 823.466667 257.333333 810.666667 257.333333z"  horiz-adv-x="1024" />

    
    <glyph glyph-name="yisheng" unicode="&#58908;" d="M660.438239 190.716015c144.616702-53.224202 252.715699-181.784206 276.931217-338.185302L870.356202-147.469288c-31.210839 169.70817-179.614797 298.365388-358.355691 298.365388l0 0 0 0c-178.740894 0-327.146898-128.658242-358.355691-298.365388L86.628498-147.469288c24.216541 156.402119 132.315538 284.962124 276.900517 338.185302-89.484034 51.476395-149.893892 147.888212-149.893892 258.544451L213.635123 747.625854l596.729753 0 0-298.365388C810.364877 338.604226 749.953995 242.19241 660.438239 190.716015zM611.453594 648.170724l-66.301032 0L545.152563 714.473803l-66.304102 0 0-66.303079-66.304102 0 0-66.303079 66.304102 0 0-66.303079 66.304102 0 0 66.303079 66.301032 0L611.453594 648.170724zM279.938202 449.260465c0-128.171148 103.891162-232.06231 232.06231-232.06231s232.061286 103.891162 232.061286 232.06231L279.938202 449.260465z"  horiz-adv-x="1024" />

    
    <glyph glyph-name="bangzhudisc" unicode="&#59090;" d="M512 896C229.248 896 0 666.752 0 384c0-282.752 229.248-512 512-512 282.752 0 512 229.248 512 512C1024 666.752 794.752 896 512 896zM508.8 83.328c-36.032 1.024-64.32 25.92-63.168 63.616 1.152 37.696 30.848 61.76 66.88 60.736 37.632-1.088 65.088-26.752 63.936-64.448C575.296 105.536 546.432 82.24 508.8 83.328zM676.16 427.968C666.56 414.848 644.864 398.08 617.664 377.6L587.52 357.568c-14.592-10.944-27.584-23.68-32.384-38.336C552.64 311.488 551.04 304.704 550.464 291.264 550.336 288.64 548.608 282.56 540.16 282.56L455.04 282.56c-9.472 0-10.496 5.376-10.432 8 1.344 36.8 2.688 62.4 17.792 79.488 26.048 29.504 85.44 66.24 85.44 66.24 9.088 6.528 16.384 13.696 21.888 21.504 10.048 13.376 18.432 28.096 18.432 44.16 0 18.496-5.632 35.328-16.832 50.496C560.128 567.744 539.648 575.36 509.952 575.36c-29.248 0-49.92-9.344-62.144-28.096C439.424 534.4 433.92 521.28 431.296 507.776c-0.896-17.152-6.208-18.88-17.28-18.88L331.968 488.896c-7.296 0-9.088 4.352-10.752 16.96 6.144 60.416 30.848 103.872 74.112 130.432C425.152 654.72 461.76 664 505.152 664c57.024 0 104.448-13.12 142.208-39.424C685.12 598.336 704 559.424 704 507.84 704 476.224 692.48 449.6 676.16 427.968z"  horiz-adv-x="1024" />

    
    <glyph glyph-name="jinxingzhong" unicode="&#59225;" d="M531.501146 761.73097c0-13.973246 0.007163-27.275203-0.00307-40.578184-0.005117-6.040576 0.246617-12.098549-0.12996-18.116613-0.813528-13.005198-9.946536-21.652136-22.049179-21.269419-11.734252 0.37146-19.999496 8.946766-20.244067 21.835308-0.305969 16.102746-0.060375 32.215726-0.128937 48.323589-0.01228 2.934842-0.384763 5.868661-0.654916 9.702989-66.360384-3.296069-127.08849-22.157649-185.903014-57.241702 12.999059-0.858554 23.203468-1.441838 33.393551-2.226714 19.094894-1.470491 33.175587-16.111956 32.879851-34.044374-0.302899-18.365276-15.432481-33.989115-34.671661-33.271778-43.245943 1.610684-86.472444 4.006244-129.656989 6.847965-17.284665 1.136893-31.249725 16.838503-30.446429 34.269501 1.898233 41.21468 4.298909 82.421174 7.444553 123.558084 1.505283 19.685341 18.188244 32.526811 37.606503 31.107485 18.605753-1.358951 32.240285-16.571421 31.754215-36.080753-0.340761-13.677511-1.384533-27.336602-2.198062-42.585911 6.363941 3.892657 11.683087 7.142677 16.998139 10.398838C452.619588 876.966505 702.234669 844.1941 850.605881 685.537637c188.550307-201.619974 151.350057-517.577019-78.912257-670.231791C549.761022-131.828188 248.360508-66.716238 111.914906 157.85547c-36.893258 60.721967-57.535391 126.625956-62.563918 197.438745-2.736321 38.528502 6.437619 48.396243 44.86993 48.514947 27.853371 0.085958 55.707766 0.056282 83.562161 0.001023 15.312754-0.030699 24.440645-7.872295 24.281009-20.651342-0.153496-12.277628-9.185196-20.011776-23.848151-20.098757-19.075451-0.113587-38.150902-0.027629-58.4666-0.027629 2.845815-53.774741 16.7198-103.356996 41.646516-150.941757 6.748704 3.6399 12.765745 7.136537 18.999726 10.193153 11.146874 5.465478 23.415292 1.879813 28.766161-8.144494 5.329379-9.985422 1.899256-20.99415-8.855692-27.557636-5.414313-3.304256-11.092639-6.17463-18.055215-10.015098 30.832216-44.481074 68.424392-80.802304 114.145713-110.404506 3.758604 6.228865 7.015787 12.004405 10.636245 17.543561 6.979972 10.679223 19.361977 13.482059 29.813003 6.961552 9.746992-6.081509 12.170181-16.893762 6.138814-28.081569-2.852978-5.29254-5.981225-10.435677-9.522887-16.582677 48.619324-24.63405 99.700723-37.418214 154.7372-40.605813 0.274246 3.836375 0.722454 7.344269 0.741897 10.855232 0.084934 15.436574-0.116657 30.876218 0.099261 46.310745 0.189312 13.518898 8.41567 22.292726 20.577664 22.51069 12.470009 0.222057 21.49864-8.80862 21.791305-22.549575 0.321318-15.09479 0.085958-30.201859 0.092098-45.302789 0.002047-3.592828 0-7.186679 0-11.653411 55.164391 2.708692 106.071827 16.188704 155.461701 40.079834-3.795443 6.339382-7.368828 11.863189-10.497075 17.629519-5.604648 10.331299-2.885723 21.256116 6.508227 27.287483 9.640568 6.188956 21.994943 4.240581 28.706809-5.046946 4.261047-5.895267 7.765871-12.33698 12.116969-19.35379 45.150316 29.553083 83.055624 65.243957 113.835651 110.183472-6.084579 3.567245-11.497868 6.667863-16.838503 9.888208-11.529591 6.951319-15.226796 17.853623-9.558703 27.971052 5.79089 10.335393 18.145266 13.595646 29.77821 7.67275 5.650697-2.876514 11.128455-6.093788 16.626679-9.124821 18.823718 22.162766 44.511773 112.912629 42.24515 150.277632-16.249079 0-32.605605-0.004093-48.961108 0.00307-4.362354 0.002047-8.738012-0.170892-13.083993 0.104377-11.495822 0.729617-19.536962 9.082866-19.629059 20.137643-0.096191 11.477402 8.215102 20.236903 20.290115 20.457938 17.445324 0.320295 34.899858 0.071631 52.350298 0.113587 2.952238 0.007163 5.904477 0.254803 9.780761 0.433882-3.620457 53.287647-16.492626 103.258759-41.785685 150.743236-6.631024-3.521197-12.698207-6.92676-18.924002-10.009981-11.336186-5.614881-23.102161-2.255367-28.691459 7.999185-5.471618 10.037611-2.149966 20.841677 8.66945 27.507494 5.399987 3.327792 11.010775 6.313799 17.621333 10.077519-30.129204 44.76453-68.318992 80.19753-113.553219 110.466927-3.510964-5.621021-6.769171-10.862395-10.051937-16.08842-7.349385-11.700483-19.503193-15.47239-30.04427-9.337669-10.759041 6.260587-13.153578 18.250666-6.03853 30.509874 2.830465 4.877077 5.774517 9.68764 9.121751 15.290241C637.944434 745.689622 586.866105 758.664122 531.501146 761.73097zM474.661603 500.539226c0.00307 38.232766-0.195451 76.467579 0.076748 114.698299 0.164752 23.062252 16.220427 37.864376 38.609343 36.416398 16.879436-1.091868 30.404474-14.032598 31.245631-31.043017 0.711198-14.387685 0.355087-28.831652 0.36225-43.25106 0.027629-55.001685 0.151449-110.004393-0.161682-165.004031-0.039909-7.052626 2.346441-10.731412 8.354272-14.054087 65.663512-36.31509 131.154086-72.942289 196.763362-109.354594 10.934027-6.068206 18.547425-14.340613 19.98517-27.112498 1.472538-13.075807-3.154853-23.858384-13.83817-31.514761-11.31879-8.111748-23.810289-8.904811-36.199457-2.983961-9.954723 4.757351-19.387559 10.609639-29.031197 16.013719-64.874543 36.359093-129.653919 72.890101-194.680934 108.9729-14.778588 8.200776-21.781072 19.623943-21.608134 36.538171C474.921523 426.082444 474.658534 463.31237 474.661603 500.539226z"  horiz-adv-x="1024" />

    
    <glyph glyph-name="cy1" unicode="&#59544;" d="M699.86418 331.999672c9.463536 37.562501 43.670615 65.459874 84.311221 65.459874 12.311397 0 24.487717-2.659573 35.647895-7.66661L819.823296 770.341069c0 28.314883-23.064298 51.268664-51.511187 51.268664L168.099021 821.609733c-28.445866 0-51.507094-22.953781-51.507094-51.268664l0-732.678028c0-28.310789 23.061228-51.263547 51.507094-51.263547l446.864514 0c1.226944 1.547239 2.51631 3.053546 3.941775 4.470825l7.804756 7.768941c-34.620495 38.361703-53.991682 88.018659-53.991682 140.362818C572.718385 223.489306 623.076306 298.821015 699.86418 331.999672zM330.015737 648.912485l276.384771 0c16.504906 0 29.889751-13.322423 29.889751-29.752628 0-16.432251-13.384845-29.749558-29.889751-29.749558l-276.384771 0c-16.511046 0-29.896914 13.31833-29.896914 29.749558C300.119847 635.590062 313.504692 648.912485 330.015737 648.912485zM330.015737 494.129236l276.384771 0c16.504906 0 29.889751-13.322423 29.889751-29.753651 0-16.432251-13.384845-29.753651-29.889751-29.753651l-276.384771 0c-16.511046 0-29.896914 13.3214-29.896914 29.753651C300.119847 480.80579 313.504692 494.129236 330.015737 494.129236zM300.119847 309.59336c0 16.427134 13.385868 29.751604 29.896914 29.751604l276.384771 0c16.504906 0 29.889751-13.32447 29.889751-29.751604 0-16.433274-13.384845-29.755698-29.889751-29.755698l-276.384771 0C313.504692 279.837662 300.119847 293.160085 300.119847 309.59336zM898.914632-0.921743c40.758286 33.159214 66.818825 83.569324 66.818825 139.924843 0 79.83835-52.296063 147.731646-124.583436 171.573657 0 0.127913 0.033769 0.255827 0.033769 0.38988 0 17.863856-8.354272 33.80492-21.361517 44.211944-9.769504 7.818059-22.162766 12.527314-35.647895 12.527314-31.439036 0-57.011458-25.448602-57.011458-56.739259 0-0.134053 0.027629-0.261966 0.037862-0.38988-72.287373-23.837918-124.593669-91.735307-124.593669-171.573657 0-56.355519 26.066679-106.765629 66.818825-139.924843l-12.728906-12.67774-16.656355-16.570397c-7.878434-7.842619-7.878434-20.556175 0-28.396747 3.939729-3.917216 9.105379-5.877871 14.265912-5.877871 5.158487 0 10.321066 1.960655 14.262842 5.877871l35.574217 35.402301c24.155143-11.853979 51.322899-18.526959 80.031754-18.526959 28.700669 0 55.864332 6.67298 80.021521 18.526959l35.574217-35.402301c3.941775-3.917216 9.103332-5.877871 14.270005-5.877871 5.164626 0 10.321066 1.960655 14.258749 5.877871 7.886621 7.840572 7.886621 20.554128 0 28.396747L898.914632-0.921743zM784.174378 347.633744c17.188474 0 31.608905-11.80179 35.647895-27.679409 0.325411-1.287319 0.601704-2.583848 0.791016-3.917216-0.257873 0.054235-0.528026 0.090051-0.791016 0.144286-11.528568 2.294252-23.452131 3.51608-35.647895 3.51608-12.485359 0-24.670889-1.260713-36.45119-3.659343C750.220055 333.856973 765.589091 347.633744 784.174378 347.633744zM802.876322-0.27092c-6.127558-0.805342-12.353352-1.266853-18.700921-1.266853-77.865415 0-141.214209 63.046918-141.214209 140.540873s63.348794 140.538827 141.214209 140.538827c12.311397 0 24.255427-1.587148 35.647895-4.546549 60.658522-15.758915 105.564267-70.75446 105.564267-135.992277C925.387563 67.820897 871.929024 8.871297 802.876322-0.27092zM874.273419 149.038664l-56.349379 0c-3.605108 11.981892-13.487176 21.265326-25.824155 24.106024l0 31.892361c0 5.54632-4.516874 10.039657-10.086729 10.039657s-10.084683-4.493338-10.084683-10.039657l0-33.194006c-13.403265-4.965082-22.994714-17.790178-22.994714-32.839943 0-19.338441 15.809057-35.071773 35.241642-35.071773 15.925714 0 29.401634 10.574846 33.748638 25.029046l56.349379 0c5.571902 0 10.086729 4.495384 10.086729 10.042727C884.361171 144.547373 879.846344 149.038664 874.273419 149.038664zM784.174378 124.003478c-8.31027 0-15.07023 6.729262-15.07023 14.999622 0 8.264221 6.758937 14.993482 15.07023 14.993482 8.302083 0 15.062044-6.729262 15.062044-14.993482C799.236422 130.732739 792.477484 124.003478 784.174378 124.003478z"  horiz-adv-x="1024" />

    
    <glyph glyph-name="rili" unicode="&#59013;" d="M885.504 739.2 751.232 739.2l0 55.04c0 18.816-15.232 34.048-34.048 34.048s-34.048-15.104-34.048-33.92l0-55.04L340.992 739.328l0 55.04c0 18.816-15.232 34.048-34.048 34.048s-34.048-15.232-34.048-34.048l0-55.04L138.624 739.328c-58.112 0-105.472-47.36-105.472-105.472l0-583.552c0-58.112 47.36-105.472 105.472-105.472l746.624 0c58.112 0 105.472 47.36 105.472 105.472L990.72 633.728C990.976 691.968 943.616 739.2 885.504 739.2zM933.504 50.176c0-26.496-21.632-48-48.128-48L138.752 2.176c-26.496 0-48.128 21.504-48.128 48L90.624 633.728c0 26.496 21.504 48.128 48.128 48.128l134.272 0 0-39.68c0-18.816 15.232-34.048 34.048-34.048s34.048 15.232 34.048 34.048l0 39.68 342.016 0 0-39.68c0-18.816 15.232-34.048 34.048-34.048s34.048 15.232 34.048 34.048l0 39.68 134.144 0c26.496 0 48.128-21.632 48.128-48.128L933.504 50.176 933.504 50.176zM341.632 497.408l-38.4 0c-18.816 0-34.048-15.232-34.048-34.048s15.232-34.048 34.048-34.048l38.4 0c18.816 0 34.048 15.232 34.048 34.048S360.448 497.408 341.632 497.408zM531.328 497.408l-38.4 0c-18.816 0-34.048-15.232-34.048-34.048s15.232-34.048 34.048-34.048l38.4 0c18.816 0 34.048 15.232 34.048 34.048S550.144 497.408 531.328 497.408zM721.024 497.408l-38.4 0c-18.816 0-34.048-15.232-34.048-34.048s15.232-34.048 34.048-34.048l38.4 0c18.816 0 34.048 15.232 34.048 34.048S739.84 497.408 721.024 497.408zM341.632 345.216l-38.4 0c-18.816 0-34.048-15.232-34.048-34.048s15.232-34.048 34.048-34.048l38.4 0c18.816 0 34.048 15.232 34.048 34.048S360.448 345.216 341.632 345.216zM531.328 345.216l-38.4 0c-18.816 0-34.048-15.232-34.048-34.048s15.232-34.048 34.048-34.048l38.4 0c18.816 0 34.048 15.232 34.048 34.048S550.144 345.216 531.328 345.216zM721.024 345.216l-38.4 0c-18.816 0-34.048-15.232-34.048-34.048s15.232-34.048 34.048-34.048l38.4 0c18.816 0 34.048 15.232 34.048 34.048S739.84 345.216 721.024 345.216zM341.632 193.28l-38.4 0c-18.816 0-34.048-15.232-34.048-34.048 0-18.816 15.232-34.048 34.048-34.048l38.4 0c18.816 0 34.048 15.232 34.048 34.048S360.448 193.28 341.632 193.28zM531.328 193.28l-38.4 0c-18.816 0-34.048-15.232-34.048-34.048 0-18.816 15.232-34.048 34.048-34.048l38.4 0c18.816 0 34.048 15.232 34.048 34.048S550.144 193.28 531.328 193.28zM721.024 193.28l-38.4 0c-18.816 0-34.048-15.232-34.048-34.048 0-18.816 15.232-34.048 34.048-34.048l38.4 0c18.816 0 34.048 15.232 34.048 34.048S739.84 193.28 721.024 193.28z"  horiz-adv-x="1024" />

    
    <glyph glyph-name="icon1" unicode="&#58986;" d="M762.498194 754.896308c-14.305821 9.658987-33.714869 5.876847-43.36874-8.398274-9.658987-14.295588-5.897314-33.714869 8.398274-43.373857 106.3604-71.852468 169.859619-191.277418 169.859619-319.445496 0-212.414831-172.807764-385.217479-385.217479-385.217479S126.951367 171.264874 126.951367 383.679705c0 128.169101 63.49922 247.593028 169.854503 319.445496 14.295588 9.658987 18.057261 29.078269 8.398274 43.373857-9.658987 14.275121-29.068036 18.057261-43.363623 8.398274C138.262994 671.402709 64.48364 532.630109 64.48364 383.679705c0-246.851131 200.828958-447.685205 447.685205-447.685205S959.855074 136.827551 959.855074 383.679705C959.855074 532.630109 886.075721 671.402709 762.498194 754.896308zM400.692938 831.364911c-17.248849 0-31.234375-13.980409-31.234375-31.234375l0-30.470989c0-17.253966 13.985526-31.234375 31.234375-31.234375 17.248849 0 31.233352 13.980409 31.233352 31.234375L431.92629 800.130535C431.92629 817.384501 417.941787 831.364911 400.692938 831.364911zM623.645776 831.364911c-17.248849 0-31.234375-13.980409-31.234375-31.234375l0-30.470989c0-17.253966 13.985526-31.234375 31.234375-31.234375s31.234375 13.980409 31.234375 31.234375L654.880151 800.130535C654.880151 817.384501 640.894625 831.364911 623.645776 831.364911zM425.690262 668.343023c11.209296-18.047028 41.97602-48.589648 86.157265-48.589648 43.958164 0 75.100442 30.308283 86.574774 48.223305 9.302877 14.528901 5.068436 33.846876-9.455349 43.149752-14.544251 9.323343-33.846876 5.053086-43.149752-9.455349-0.121773-0.193405-13.379729-19.449981-33.968649-19.449981-20.008706 0-32.443923 18.127869-33.277918 19.36914-9.17087 14.437827-28.285207 18.819624-42.829458 9.760295C421.084361 702.250274 416.584883 682.993698 425.690262 668.343023zM271.773753 382.693238c-12.378935-12.017708-12.668531-31.7931-0.650823-44.166919l151.904689-156.423609c5.881964-6.060019 13.96506-9.475815 22.408359-9.475815s16.526395 3.415796 22.408359 9.475815l285.370423 293.854655c12.017708 12.373819 11.728112 32.149211-0.650823 44.166919-12.373819 12.007475-32.144094 11.712763-44.166919-0.650823L445.435978 248.698454 315.940672 382.042415C303.922964 394.395768 284.152688 394.700713 271.773753 382.693238z"  horiz-adv-x="1024" />

    
    <glyph glyph-name="shouzhi" unicode="&#59035;" d="M398.647-58.199 179.278 215.814c0 0-11.085 102.239 87.737 59.17 57.017-25.586 77.367-79.298 77.367-79.298l2.043 417.39c0 0 58.947 87.901 110.234 0l0.934-264.254c0 0 63.75 86.742 138.747-6.064 0 0 56.248 94.518 135.27-4.577 0 0 56.03 109.298 112.278-9.485l0-331.75c0 0-3.256-25.862-48.862-55.145L398.647-58.199 398.647-58.199zM398.647-58.199M400.576 825C278.208 825 178.95 725.741 178.95 603.374c0-82.111 45.164-152.972 111.502-191.245l0 68.489c-34.299 30.386-56.357 74.228-56.357 123.636 0 91.43 74.166 165.602 165.597 165.602 91.433 0 165.602-74.171 165.602-165.602 0-48.415-21.175-91.595-54.265-121.871l0-70.086c66.121 38.379 111.174 109.13 111.174 191.077C622.203 725.741 522.944 825 400.576 825L400.576 825zM400.576 825"  horiz-adv-x="1024" />

    
    <glyph glyph-name="xiugai07" unicode="&#59192;" d="M234.057143 142.628571c14.628571 0 29.257143 7.314286 43.885714 14.628571l7.314286 0-146.285714 146.285714 0-7.314286C131.657143 281.6 124.342857 266.971429 124.342857 252.342857L73.142857 91.428571 234.057143 142.628571 234.057143 142.628571 234.057143 142.628571 234.057143 142.628571zM746.057143 727.771429 702.171429 778.971429c-29.257143 29.257143-65.828571 29.257143-95.085714 0L563.2 727.771429l138.971429-138.971429 43.885714 43.885714C775.314286 661.942857 775.314286 705.828571 746.057143 727.771429L746.057143 727.771429 746.057143 727.771429 746.057143 727.771429zM658.285714 544.914286 519.314286 683.885714 190.171429 354.742857l138.971429-138.971429L658.285714 544.914286 658.285714 544.914286 658.285714 544.914286 658.285714 544.914286zM0 18.285714l1024 0 0-73.142857L0-54.857143 0 18.285714 0 18.285714z"  horiz-adv-x="1024" />

    
    <glyph glyph-name="da" unicode="&#59063;" d="M298.69387 53.848675M510.364757 431.003524c-4.635577 0-8.723685-1.635243-12.261255-4.904707-11.17655-10.083659-24.52251-20.167319-40.054251-30.244838l107.083877 0c-17.441231 10.627035-31.611975 20.844747-42.506093 30.65416C518.53995 429.502333 514.452865 431.003524 510.364757 431.003524zM511.99693 832.90294c-247.530606 0-448.882474-201.356984-448.882474-448.88759 0-91.696422 27.602661-179.497117 79.980589-254.959809l-45.331441-151.125953c-3.508917-11.720949-0.293689-24.418133 8.346085-33.056883 8.632611-8.668427 21.231557-11.881608 33.05586-8.344039l165.374468 49.647747c63.937195-33.44881 135.337361-51.079352 207.457936-51.079352 247.530606 0.034792 448.88759 201.421452 448.88759 448.88759C960.88452 631.517303 759.527536 832.90294 511.99693 832.90294zM322.764078 498.441449c18.525935 19.343557 31.880081 42.097794 40.055275 68.255547 2.450818 7.082302 6.538927 11.987009 12.261255 14.71412 4.903683 2.720971 10.761088 3.12927 17.574261 1.225921 5.990434-2.183735 10.351766-5.862521 13.078877-11.035334 2.178619-5.722328 2.312672-11.994172 0.409322-18.801205l89.508593 0c6.540973-0.274246 11.852956-2.183735 15.940041-5.722328 3.813862-3.818979 5.722328-9.131985 5.722328-15.940041-0.274246-5.997598-2.183735-11.175527-5.722328-15.531741-4.087085-4.361331-9.400091-6.538927-15.940041-6.538927l-33.514301 0c7.899924-17.715477 10.485819-29.836539 7.765871-36.376489-3.001357-5.453199-7.496741-9.540284-13.487176-12.261255-6.538927-2.183735-12.401448-1.909489-17.574261 0.817622-5.722328 2.719948-9.949606 7.899924-12.670577 15.530718-5.454222 13.896498-10.626012 24.657586-15.530718 32.28838l-24.113187 0c-19.35072-33.515325-36.108383-50.681286-50.272987-51.498908-5.996574 0.543376-11.175527 2.995217-15.530718 7.356548-4.6366 5.172813-6.813173 10.627035-6.538927 16.34834C314.723961 487.540168 317.585125 493.262496 322.764078 498.441449zM660.773372 231.957165c0-9.809413-4.088108-18.800181-12.261255-26.975375-7.631818-7.624654-16.349363-11.444657-26.157753-11.444657L406.143067 193.537134c-10.083659 0.549515-17.715477 4.227278-22.88829 11.036357-6.813173 8.173147-10.083659 17.306154-9.80839 27.383674l0 70.300113c-0.274246 8.717546 2.862187 16.482393 9.401114 23.296589 6.264681 6.538927 14.030551 9.80839 23.296589 9.80839l24.931832 0 191.279465 0c11.444657 0 20.9788-3.409656 28.609595-10.217712 6.264681-5.996574 9.53619-13.627369 9.810437-22.887266L660.775418 231.957165zM709.819414 355.391429c-2.727111-7.089465-6.680143-11.995195-11.851932-14.71412-5.722328-3.00238-11.994172-3.269463-18.802228-0.818645-19.349697 6.540973-44.549635 17.984606-75.612095 34.332946 0.268106-0.275269 0.408299-0.816598 0.408299-1.635243 0-6.813173-2.184759-12.402471-6.538927-16.757662-4.361331-4.6366-9.949606-6.948249-16.757662-6.948249L443.336154 348.850455c-7.356548 0-13.078877 2.178619-17.165961 6.540973-4.361331 4.629437-6.538927 10.351766-6.538927 17.164938-27.791973-15.262612-52.723805-26.707268-74.794473-34.331923-7.089465-2.452865-13.487176-2.043542-19.209504 1.225921-5.996574 3.269463-9.949606 7.899924-11.852956 13.896498-2.452865 7.083326-2.317789 13.487176 0.409322 19.209504 2.995217 5.448082 7.898901 9.401114 14.71412 11.852956 64.027246 21.796422 117.435643 51.090609 160.215982 87.874373 6.538927 5.722328 13.622252 8.583492 21.253046 8.583492 0.818645 0 1.360997-0.140193 1.635243-0.408299-0.816598 2.177596-1.225921 4.221138-1.225921 6.130627-0.548492 6.264681 1.635243 12.395308 6.538927 18.391882 13.896498 18.251689 22.614044 38.010709 26.157753 59.263755 1.902326 7.356548 5.448082 12.669554 10.627035 15.940041 4.629437 3.270487 10.351766 4.355191 17.164938 3.270487 5.990434-1.909489 10.761088-5.0449 14.305821-9.401114 3.269463-5.722328 4.087085-12.401448 2.450818-20.027126-0.274246-0.549515-0.548492-1.225921-0.817622-2.043542l98.092086 0c6.808056-0.275269 12.261255-2.183735 16.34834-5.722328 4.088108-4.361331 6.131651-9.949606 6.131651-16.757662 0-6.27082-2.043542-11.584849-6.131651-15.940041-4.087085-4.6366-9.540284-6.948249-16.34834-6.948249l-33.923624 0c9.534144-16.623609 13.078877-28.341488 10.627035-35.149545-2.452865-5.722328-6.680143-10.217712-12.670577-13.487176-6.27082-2.452865-11.993149-2.727111-17.165961-0.817622-1.091868 0.542352-1.775436 0.951675-2.043542 1.225921-4.087085 2.719948-15.123442 18.800181-33.107025 48.228421l-25.749454 0c-11.718903-23.162536-22.210861-36.516682-31.470759-40.054251 39.23663-31.610952 90.735537-58.446134 154.4957-80.516802 7.082302-2.452865 11.987009-6.53995 14.71412-12.262278C711.454658 367.511467 711.722764 361.38084 709.819414 355.391429zM603.143836 288.360779 431.074899 288.360779c-2.452865 0.268106-4.6366-0.548492-6.538927-2.452865-1.635243-1.908466-2.452865-4.087085-2.452865-6.538927l0-29.835516c0-2.178619 0.951675-4.221138 2.860141-6.131651 1.360997-1.902326 3.40454-2.860141 6.131651-2.860141l172.069961 0c2.452865 0 4.629437 0.957815 6.538927 2.860141 1.360997 2.184759 2.177596 4.227278 2.452865 6.131651l0 29.835516c0 2.452865-0.817622 4.495384-2.452865 6.131651C607.773274 287.401941 605.596701 288.360779 603.143836 288.360779z"  horiz-adv-x="1024" />

    
    <glyph glyph-name="zuanshi" unicode="&#59219;" d="M880.64 529.28l-160 184.32c-12.16 14.08-30.08 22.4-48.64 22.4L352 736c-18.56 0-35.84-7.68-48-21.76l-160-183.04c-20.48-23.68-21.12-58.24-1.28-82.56l320-392.96c12.16-14.72 30.08-23.68 49.28-23.68 0 0 0 0 0 0 19.2 0 37.12 8.32 49.28 23.68l320 391.68C901.12 471.04 900.48 505.6 880.64 529.28zM801.28 522.88 585.6 522.88l109.44 113.92c1.28 1.28 2.56 3.2 3.84 4.48L801.28 522.88zM512 538.88 383.36 672l256.64 0L512 538.88zM325.12 641.28c1.28-1.92 2.56-3.2 3.84-5.12l109.44-113.92L221.44 522.24 325.12 641.28zM216.32 458.88 480 458.88l0-323.2L216.32 458.88zM544 135.04 544 458.88l264.32 0L544 135.04z"  horiz-adv-x="1024" />

    
    <glyph glyph-name="dengdai" unicode="&#58899;" d="M512.007939-127.984274c-282.311779 0-512.008211 229.687238-512.008211 511.992221 0 282.31078 229.696432 511.992021 512.008211 511.992021 282.31078 0 511.987024-229.680242 511.987024-511.992021 0-37.889854-4.170964-75.671176-12.341-112.303224-4.737406-21.144037-25.641195-34.39926-46.892764-29.750997-21.161226 4.737406-34.488603 25.731338-29.750997 46.89856 6.916829 31.004205 10.453194 63.031764 10.453194 95.155662 0 239.007947-194.444111 433.462851-433.452858 433.462851-239.024736 0-433.475044-194.453905-433.475044-433.462851 0-239.014143 194.449908-433.457055 433.475044-433.457055 41.004285 0 81.531472 5.698998 120.465866 16.934298 20.753484 6.112737 42.564899-5.982619 48.625868-26.827045 6.001607-20.837431-6.011601-42.603075-26.849231-48.603483-46.024313-13.315385-93.874471-20.037736-142.241503-20.037736l0 0 0 0L512.007939-127.984274zM747.711774 116.361699c-9.234364 0-18.5119 3.242751-25.977982 9.842779l-258.352721 228.376466c-8.43347 7.454889-13.265216 18.173914-13.265216 29.422205l0 274.03481c0 21.688493 17.589483 39.269182 39.269182 39.269182 21.682497 0 39.268982-17.582688 39.268982-39.269182l0-256.329999L773.74672 185.045092c16.263322-14.360724 17.793954-39.173842 3.422237-55.436164-7.779683-8.767059-18.601044-13.247028-29.460581-13.247028l0 0 0 0C747.708576 116.361699 747.711774 116.361699 747.711774 116.361699zM812.335332 30.248123c0-16.296501 6.706162-32.485669 18.226081-44.006788 11.520119-11.509726 27.710287-18.216087 43.995795-18.216087 16.290305 0 32.485669 6.706162 44.000592 18.216087 11.520119 11.520119 18.221284 27.710287 18.221284 44.006788 0 16.290504-6.701165 32.481672-18.221284 43.996594-11.514723 11.519919-27.710287 18.224282-44.000592 18.224282-16.284508 0-32.473677-6.704163-43.995795-18.224282C819.039495 62.724798 812.335332 46.541626 812.335332 30.248123L812.335332 30.248123z"  horiz-adv-x="1025" />

    
    <glyph glyph-name="ai03" unicode="&#58997;" d="M440.696536 226.426195l211.429387 158.583808-211.429387 158.605298L440.696536 226.426195zM511.180843 737.403912c-193.814194 0-352.396979-158.582785-352.396979-352.394932 0-193.791681 158.583808-352.398002 352.396979-352.398002 193.814194 0 352.398002 158.606321 352.398002 352.398002C863.577822 578.821127 704.994014 737.403912 511.180843 737.403912M511.180843 103.095285c-155.059542 0-281.912671 126.854153-281.912671 281.913695 0 155.059542 126.854153 281.935184 281.912671 281.935184 155.059542 0 281.913695-126.875642 281.913695-281.935184C793.094538 229.949438 666.239362 103.095285 511.180843 103.095285"  horiz-adv-x="1024" />

    
    <glyph glyph-name="dengdai1" unicode="&#58917;" d="M60.014 353.615c0 37.982 30.385 68.367 68.367 68.367 45.578 0 75.964-30.385 75.964-68.367 0-45.578-30.385-75.964-75.964-75.964-37.982 0-68.367 30.385-68.367 75.964zM151.171 619.488v0c0 53.175 37.982 98.753 91.157 98.753s98.753-45.578 98.753-98.753v0c0-53.175-45.578-91.157-98.753-91.157s-91.157 37.982-91.157 91.157v0zM189.153 80.144v0c0 30.385 22.789 53.175 53.175 53.175s53.175-22.789 53.175-53.175v0c0-30.385-22.789-53.175-53.175-53.175s-53.175 22.789-53.175 53.175zM455.027-33.802v0c0 37.982 22.789 60.772 60.772 60.772s60.772-22.789 60.772-60.772v0c0-37.982-22.789-60.772-60.772-60.772-37.982 0-60.772 22.789-60.772 60.772zM751.287 80.144c0 22.789 15.193 37.982 37.982 37.982s37.982-15.193 37.982-37.982c0-22.789-15.193-37.982-37.982-37.982-22.789 0-37.982 15.193-37.982 37.982zM834.847 353.615c0 30.385 30.385 60.772 68.367 60.772 30.385 0 60.772-30.385 60.772-60.772 0-37.982-30.385-68.367-60.772-68.367-37.982 0-68.367 30.385-68.367 68.367zM660.13 619.488c0 75.964 60.772 129.139 129.139 129.139s129.139-53.175 129.139-129.139c0-68.367-60.772-129.139-129.139-129.139-68.367 0-129.139 60.772-129.139 129.139zM386.66 733.434c0 68.367 60.772 129.139 129.139 129.139s129.139-60.772 129.139-129.139c0-68.367-60.772-129.139-129.139-129.139-68.367 0-129.139 60.772-129.139 129.139z"  horiz-adv-x="1024" />

    
    <glyph glyph-name="wo" unicode="&#58980;" d="M717.664 283.805c-52.734-47.461-121.289-79.102-200.391-79.102s-147.656 31.641-205.664 79.102c-131.836-68.555-221.484-158.203-221.484-321.68l843.75 0c0 163.477-89.648 247.852-216.211 321.68zM512 267.984c131.836 0 237.305 110.742 237.305 242.578s-105.469 242.578-237.305 242.578-237.305-110.742-237.305-242.578c0-137.109 110.742-242.578 237.305-242.578z"  horiz-adv-x="1024" />

    
    <glyph glyph-name="zhifu7" unicode="&#59061;" d="M644.095744-62.130864c0 30.068053-23.64706 54.403077-53.310429 55.954368l0 0.283279L336.360211-5.893217c-31.066275 0-56.251136-25.184861-56.251136-56.251136 0-31.093254 25.184861-56.251136 56.251136-56.251136L590.785314-118.395489l0 0.283279C620.448683-116.547431 644.095744-92.198917 644.095744-62.130864zM901.191764 564.927665 591.311404 874.295425c-15.526393 15.877119-41.008023 16.146909-56.898631 0.607027L123.469221 472.929404c-15.904098-15.553372-16.200867-41.035002-0.647495-56.912121l137.430833-141.315804 0 2.819302 189.405804-164.274901 36.381131 0c45.999131 40.468443 115.132721 100.833871 140.250135 120.299192l7.648536 7.662025c0.040468 0.242811 0.107916 0.391195 0.148384 0.660985-5.908393 9.8743-18.278247 31.241638-29.245195 54.06584l-115.281106-116.009537c-12.720581-12.437302-32.658034-12.626154-44.596225-0.418174L204.689386 426.012989c-11.911212 12.194491-11.290696 32.131944 1.402906 44.555756L534.453241 791.76678c12.707091 12.423812 32.658034 12.558707 44.596225 0.404684L819.297124 554.945449c11.924701-12.20798 11.304185-32.131944-1.389417-44.555756l-95.060373-95.6674c5.692561-12.261938 15.904098-34.141877 26.871046-57.627063l150.825888 150.933804C916.421388 523.568916 916.731646 549.023567 901.191764 564.927665zM280.109075 234.030694l0-190.269131c0 0 13.233181-33.089697 64.520188-33.089697l241.974312 0c0 0 16.362741-2.792323 30.513206 10.562264 35.09963 33.170634 141.41023 135.286006 159.35124 153.227016 21.515722 21.502233 9.914769 59.569549 0 79.412575-9.928258 19.870006-76.121142 162.157052-76.121142 162.157052s-14.892387 29.784774-56.251136 11.587464-44.677161-38.053826-39.699543-72.80273c4.964129-34.748903 49.64129-107.551633 49.64129-107.551633s1.645717-18.912253-9.928258-25.184861c-11.573975-6.24563-150.556099-128.67616-150.556099-128.67616l-51.287007 0L280.109075 234.030694zM274.605367 460.465124l190.147726 49.371501-55.482236 55.482236 26.466362 26.452872 64.628104-64.628104 36.462067 36.462067L472.212775 628.2338l26.803599 26.803599 64.628104-64.628104 53.094598 53.081108 33.251571-33.238081-53.094598-53.094598 66.988763-66.988763-26.803599-26.803599-66.988763 66.988763-36.462067-36.462067 66.988763-66.988763-26.452872-26.452872-57.154931 57.154931-50.032485-189.486741-37.500757 37.487268c26.925004 92.052219 44.839035 149.544388 53.769072 172.516974l-0.674474 0.674474c-8.930036-4.181739-28.665147-10.91299-59.205333-20.193753l-113.311641-33.588808L274.605367 460.465124z"  horiz-adv-x="1024" />

    
    <glyph glyph-name="icon" unicode="&#58916;" d="M919.048181 527.722332c-27.554566-40.422641-111.127983-73.978898-222.8853-91.866291l0-58.357106c137.860834 22.033829 232.937237 67.88204 232.937237 121.028471C929.100118 508.554784 925.459195 518.306892 919.048181 527.722332L919.048181 527.722332zM696.163905 147.534404l0-58.370409c137.860834 22.043039 232.937237 67.88204 232.937237 121.027447 0 10.039657-3.641947 19.791765-10.051937 29.208229C891.493615 198.96475 807.921221 165.408493 696.163905 147.534404L696.163905 147.534404zM919.048181 383.094374c-27.554566-40.422641-111.127983-73.968665-222.8853-91.867314l0-58.344826c137.860834 22.030759 232.937237 67.868737 232.937237 121.027447C929.100118 363.936035 925.459195 373.689167 919.048181 383.094374L919.048181 383.094374zM511.999488 508.554784c230.350318 0 417.101653 74.553996 417.101653 166.517501 0 91.963505-186.751335 166.516478-417.101653 166.516478-230.350318 0-417.1037-74.552973-417.1037-166.516478C94.895789 583.10878 281.648147 508.554784 511.999488 508.554784L511.999488 508.554784zM919.050228 97.968521c-41.260729-60.525492-207.696366-105.8467-407.05074-105.8467-199.357444 0-365.788987 45.322232-407.049716 105.8467-6.40999-9.417487-10.050913-19.156292-10.050913-29.193903 0-74.580602 186.752358-135.045719 417.1037-135.045719 230.349295 0 417.10063 60.465117 417.10063 135.045719C929.102165 78.814276 925.461241 88.551034 919.050228 97.968521L919.050228 97.968521zM327.834049 232.882234l0 58.344826c-111.766526 17.898649-195.331757 51.445696-222.887346 91.867314-6.408967-9.405207-10.050913-19.158339-10.050913-29.184693C94.895789 300.750971 189.975261 254.914016 327.834049 232.882234L327.834049 232.882234zM327.834049 89.163995l0 58.370409c-111.766526 17.876136-195.331757 51.429323-222.887346 91.865267-6.408967-9.417487-10.050913-19.169595-10.050913-29.208229C94.895789 157.046035 189.975261 111.207034 327.834049 89.163995L327.834049 89.163995zM327.834049 377.498936l0 58.357106c-111.766526 17.887392-195.331757 51.445696-222.887346 91.866291-6.408967-9.41544-10.050913-19.166525-10.050913-29.195949C94.895789 445.380976 189.975261 399.532765 327.834049 377.498936L327.834049 377.498936zM608.531032 462.206176l-64.017012-117.954459c-17.072841-31.966039-27.514657-53.213969-31.326473-63.74379l-1.088798 0c-11.263531 25.605168-43.042305 86.169545-95.344508 181.698249l-60.202127 0 111.958908-192.320167-91.801822 0 0-42.496883 107.60167 0 0-58.56893L376.711246 168.820196l0-43.040259 107.600647 0 0-85.263919 53.393048 0 0 85.263919 103.787808 0 0 43.040259L537.70494 168.820196l0 58.56893 103.787808 0 0 42.496883L552.414967 269.886009l113.050776 192.320167L608.531032 462.206176 608.531032 462.206176z"  horiz-adv-x="1024" />

    
    <glyph glyph-name="paixu" unicode="&#59519;" d="M390.370337 807.403173c-1.890047 4.505617-4.683672 8.716522-8.30413 12.398378-11.097756 11.156084-27.1565 14.244422-40.969087 9.286504-3.345188-1.180895-6.532787-2.834558-9.485025-4.938476-1.811252-1.280156-3.502777-2.716878-5.154393-4.348028-1.574868-1.6158-182.1352-184.105065-182.1352-184.105065-15.349593-15.427364-15.349593-40.457434 0-55.903218 15.346523-15.445784 40.22105-15.445784 55.567573 0l115.075899 115.783003 0-718.42542c0-21.803585 17.590634-39.512922 39.274492-39.512922 21.724791 0 39.317471 17.71036 39.317471 39.512922L393.557936 791.858128l-0.040932 0C393.518027 797.150668 392.495744 802.444231 390.370337 807.403173L390.370337 807.403173M390.370337 807.403173M878.569258 189.234131c-15.34857 15.448854-40.22105 15.448854-55.567573 0L707.887924 73.451128l0.037862 718.407c0 21.822005-17.630542 39.512922-39.315424 39.512922-21.723767 0-39.277562-17.690918-39.277562-39.512922l0-799.12437 0-15.58393 0 0c0-5.273097 1.064238-10.54824 3.149736-15.506159 1.928932-4.488221 4.681626-8.735965 8.341992-12.435217 11.098779-11.098779 27.115568-14.247492 40.969087-9.28855 3.304256 1.179872 6.492878 2.834558 9.444093 4.958942 1.812275 1.258667 3.544733 2.75474 5.157463 4.329609 1.612731 1.650593 182.173063 184.101995 182.173063 184.101995C893.877919 148.738835 893.877919 173.768905 878.569258 189.234131L878.569258 189.234131M878.569258 189.234131"  horiz-adv-x="1024" />

    
    <glyph glyph-name="zhuce" unicode="&#59011;" d="M752.779277 281.225456c22.772498 0 41.198849 18.466262 41.198849 41.195779 0 13.119284-6.122673 24.787464-15.663319 32.329517l0.212856 0.25993c-31.702207 24.541861-66.94621 44.657755-105.004413 59.222002 48.439015 41.559066 79.256028 103.114295 79.256028 171.951647 0 125.12133-101.463639 226.585993-226.585993 226.585993-125.123377 0-226.587016-101.464663-226.587016-226.585993 0-68.837352 30.818036-130.392581 79.257051-171.951647-154.571154-59.301823-264.565398-208.763415-264.646242-384.297793l0-0.079821c0.080844-22.689607 18.507195-41.118004 41.198849-41.118004 22.770451 0 41.116981 18.428398 41.196802 41.118004 0 181.727662 147.894851 329.58158 329.58158 329.58158 74.497474 0 143.081036-25.128238 198.294595-66.945187C731.868244 285.515318 741.817205 281.225456 752.779277 281.225456zM526.193284 441.991941c-79.498561 0-144.190342 64.692805-144.190342 144.192389 0 79.498561 64.693828 144.191366 144.190342 144.191366 79.498561 0 144.191366-64.692805 144.191366-144.191366S605.691845 441.991941 526.193284 441.991941zM909.926191 143.148577 848.129453 143.148577l0 61.798785c0.001023 17.057115-13.839719 30.897857-30.897857 30.897857-17.099073 0-30.897857-13.840742-30.897857-30.897857l0-61.798785-61.796738 0c-17.097026 0-30.896834-13.838695-30.896834-30.897857 0-17.057115 13.799808-30.897857 30.896834-30.897857l61.796738 0 0-61.796738c0-17.059162 13.798785-30.895811 30.897857-30.895811 17.058139 0 30.897857 13.836649 30.897857 30.895811l0 61.796738 61.796738 0c17.058139 0 30.897857 13.840742 30.897857 30.897857C940.824049 129.308858 926.985353 143.148577 909.926191 143.148577z"  horiz-adv-x="1024" />

    
    <glyph glyph-name="daijinquan" unicode="&#58907;" d="M1246.378301-126.538187 144.810849-128C125.441827-128 106.712348-124.345468 88.987866-117.036403 71.99429-110.184154 56.645253-100.225553 43.488936-87.526053 30.423983-74.826552 20.099929-60.025696 12.882227-43.488936 5.390435-26.49536 1.553176-8.405425 1.553176 10.232691L1.279086 232.336902C1.279086 254.08137 19.551749 271.805853 42.118487 271.805853 72.725196 271.805853 101.50464 283.408994 123.249108 304.422555 144.902213 325.52748 156.870807 353.484654 156.779443 383.360457 156.779443 413.144897 144.810849 441.10207 122.975018 462.206995 101.321913 483.129193 72.451106 494.732334 41.844397 494.549607 19.277659 494.549607 0.913633 512.182727 0.913633 534.018558L0.639543 756.031406C0.639543 774.669522 4.385439 792.759458 11.785867 809.844397 19.003569 826.289793 29.23626 841.182013 42.301213 853.881513 55.45753 866.581014 70.715203 876.539615 87.800143 883.57459 105.433262 890.883655 124.162741 894.538187 143.531763 894.538187L1245.099215 896C1264.468237 896 1283.197716 892.345468 1300.922198 885.036403 1317.915774 878.184154 1333.264811 868.13419 1346.421128 855.43469 1359.486081 842.735189 1369.810136 828.025696 1377.027837 811.5803 1384.519629 794.49536 1388.356888 776.405425 1388.356888 757.767309L1388.630978 535.663098C1388.630978 513.91863 1370.358315 496.28551 1347.791577 496.28551 1317.184868 496.28551 1288.405425 484.68237 1266.75232 463.577445 1245.007852 442.47252 1233.039258 414.423983 1233.130621 384.639543 1233.130621 354.855103 1245.190578 326.89793 1266.935046 305.884368 1288.588151 284.870807 1317.458958 273.267666 1348.065667 273.359029 1370.632405 273.359029 1388.996431 255.72591 1388.996431 233.981442L1389.270521 11.968594C1389.270521-6.669522 1385.524625-24.759458 1378.124197-41.844397 1370.906495-58.289793 1360.673804-73.182013 1347.608851-85.881513 1334.452534-98.581014 1319.194861-108.630978 1302.109921-115.57459 1284.476802-122.792291 1265.65596-126.538187 1246.378301-126.538187L1246.378301-126.538187ZM83.049251 197.162027 83.32334 10.415418C83.32334-22.475375 110.823697-49.244825 144.719486-49.153462L1246.286938-47.783012C1280.091363-47.783012 1307.59172-21.013562 1307.500357 11.877231L1307.31763 198.62384C1295.16631 201.182013 1283.197716 204.745182 1271.594575 209.496074 1248.114204 219.089222 1227.100642 232.702355 1209.010707 250.244111 1191.012134 267.694504 1176.850821 287.977159 1166.89222 310.543897 1156.659529 334.115632 1151.360457 358.966453 1151.360457 384.54818 1151.360457 410.221271 1156.476802 435.163455 1166.709493 458.552463 1176.576731 481.210564 1190.738044 501.584582 1208.736617 519.034975 1226.735189 536.576731 1247.748751 550.281228 1271.137759 559.965739 1282.740899 564.716631 1294.61813 568.371163 1306.860814 570.837973L1306.586724 757.584582C1306.586724 790.475375 1278.995004 817.244825 1245.190578 817.244825L143.623126 815.783012C109.818701 815.783012 82.318344 789.013562 82.409707 756.122769L82.592434 569.284797C94.743754 566.90935 106.712348 563.163455 118.315489 558.503926 141.79586 549.002141 162.809422 535.206281 180.899358 517.847252 198.89793 500.305496 213.059243 480.022841 223.017844 457.364739 233.250535 433.884368 238.458244 409.124911 238.549607 383.45182 238.549607 357.778729 233.433262 332.927909 223.200571 309.356174 213.333333 286.789436 199.17202 266.415418 181.173448 248.965025 163.174875 231.423269 142.161313 217.627409 118.772305 208.034261 107.169165 203.283369 95.291934 199.628837 83.049251 197.162027L83.049251 197.162027ZM905.867238 602.449679 758.863669 431.143469 919.480371 431.326196 919.571734 392.039971 729.901499 391.765882 729.992862 294.920771 919.663098 295.194861 919.754461 255.908637 730.084226 255.72591 730.266952 128.27409 663.114918 128.091363 662.932191 255.634547 474.084226 255.360457 473.992862 294.646681 662.932191 294.829408 662.749465 391.674518 473.901499 391.491792 473.810136 430.778016 633.695931 431.052106 486.235546 601.901499 562.523911 601.992862 696.2798 437.264811 829.578872 602.358315 905.867238 602.449679 905.867238 602.449679 905.867238 602.449679Z"  horiz-adv-x="1391" />

    
    <glyph glyph-name="wodedaijinquan" unicode="&#58900;" d="M304.007899 362.078735c-14.564717 0-26.414603-11.849886-26.414603-26.414603l0-100.80794c0-14.564717 11.849886-26.414603 26.414603-26.414603 14.56574 0 26.415626 11.849886 26.415626 26.414603l0 100.80794C330.423525 350.228849 318.573639 362.078735 304.007899 362.078735zM304.007899 562.411389c-14.564717 0-26.414603-11.848862-26.414603-26.414603l0-100.80487c0-14.564717 11.849886-26.414603 26.414603-26.414603 14.56574 0 26.415626 11.849886 26.415626 26.414603l0 100.80487C330.423525 550.561503 318.573639 562.411389 304.007899 562.411389zM1016.920768 688.81938c0 28.636201-23.297612 51.934836-51.933813 51.934836l-657.144728-0.004093c-1.3743 0.204661-2.62785 0.304945-3.833305 0.304945-1.206478 0-2.461051-0.100284-3.783163-0.300852L59.013045 740.754217c-28.637224 0-51.934836-23.297612-51.934836-51.934836l0-170.048931c0-1.583055 0.148379-3.193739 0.441045-4.78805-0.109494-0.988514-0.162706-1.888-0.162706-2.749624 0-14.564717 11.850909-26.414603 26.41665-26.414603 56.375985 0 102.241592-45.86663 102.241592-102.243639 0-56.377008-45.865607-102.243639-102.241592-102.243639-14.56574 0-26.41665-11.849886-26.41665-26.414603 0-0.873903 0.055259-1.782599 0.165776-2.77623-0.294712-1.595334-0.444115-3.210112-0.444115-4.799306l0-167.458943c0-28.637224 23.297612-51.935859 51.934836-51.935859l905.97391 0c28.636201 0 51.933813 23.298636 51.933813 51.935859L1016.920768 255.273197c0 14.566764-11.849886 26.417673-26.414603 26.417673-0.406253 0-0.803295-0.024559-1.200338-0.051165l-0.174985-0.014326c-55.617715 0.73985-100.867292 46.597271-100.867292 102.227266 0 58.288544 43.955094 102.243639 102.242616 102.243639 14.564717 0 26.414603 11.849886 26.414603 26.414603 0 0.182149-0.007163 0.361227-0.022513 0.555655 0.01228 0.198521 0.022513 0.398066 0.022513 0.601704L1016.920768 688.81938zM835.43332 383.851621c0-37.395702 13.551644-73.537853 38.158065-101.767801 23.445992-26.898627 55.574736-45.019333 90.499154-51.046606L964.090539 79.777207 330.423525 79.777207l0 58.101279c0 14.564717-11.849886 26.414603-26.415626 26.414603-14.564717 0-26.414603-11.849886-26.414603-26.414603L277.593296 79.777207 59.907415 79.777207 59.907415 229.716124c34.985816 5.970992 67.182099 24.070208 90.687442 50.987255 24.665773 28.247344 38.250162 64.425312 38.250162 101.872179 0 37.44482-13.58439 73.623811-38.250162 101.870132-23.506367 26.91807-55.70265 45.017286-90.687442 50.987255L59.907415 687.923988l217.685881 0 0-54.949496c0-14.564717 11.849886-26.414603 26.414603-26.414603 14.56574 0 26.415626 11.849886 26.415626 26.414603l0 54.949496L964.091562 687.923988 964.091562 536.806221c-32.68133-5.293563-61.960167-20.322861-84.687798-43.475164C851.048973 464.449263 835.43332 425.568744 835.43332 383.851621zM734.024699 370.495428c14.564717 0 26.414603 11.849886 26.414603 26.414603 0 14.56574-11.849886 26.415626-26.414603 26.415626l-98.282421 0 100.374058 100.373035c10.29753 10.298554 10.29753 27.057239-0.001023 37.356816-4.989641 4.988618-11.622712 7.736195-18.678408 7.736195-7.05672 0-13.68979-2.747577-18.678408-7.736195l-88.506776-88.506776-88.5078 88.506776c-4.988618 4.988618-11.621688 7.736195-18.677385 7.736195-7.055696 0-13.68979-2.747577-18.678408-7.736195s-7.737218-11.621688-7.737218-18.678408c0-7.055696 2.7486-13.688767 7.737218-18.677385l97.53336-97.534384 0-2.838651-97.137341 0c-14.56574 0-26.415626-11.849886-26.415626-26.415626 0-14.564717 11.849886-26.414603 26.415626-26.414603l97.137341 0 0-26.28362-97.137341 0c-14.56574 0-26.415626-11.849886-26.415626-26.415626 0-14.564717 11.849886-26.414603 26.415626-26.414603l97.137341 0 0-51.420113c0-14.564717 11.849886-26.414603 26.415626-26.414603 14.56574 0 26.415626 11.849886 26.414603 26.41358l0 51.420113 99.272981 0c14.564717 0 26.414603 11.849886 26.414603 26.414603 0 14.56574-11.849886 26.415626-26.414603 26.415626l-99.272981 0 0 26.28362L734.024699 370.495428z"  horiz-adv-x="1024" />

    
    <glyph glyph-name="weizhi" unicode="&#59057;" d="M512 896C277.333333 896 85.333333 708.266667 85.333333 482.133333c0-366.933333 392.533333-593.066667 409.6-601.6C499.2-128 507.733333-128 512-128c4.266667 0 12.8 0 17.066667 4.266667 17.066667 8.533333 409.6 238.933333 409.6 601.6C938.666667 708.266667 746.666667 896 512 896zM512-42.666667c-68.266667 42.666667-341.333333 238.933333-341.333333 516.266667C170.666667 661.333333 324.266667 810.666667 512 810.666667c187.733333 0 341.333333-149.333333 341.333333-337.066667C853.333333 196.266667 580.266667 0 512-42.666667zM512 682.666667c-119.466667 0-213.333333-93.866667-213.333333-213.333333 0-119.466667 93.866667-213.333333 213.333333-213.333333 119.466667 0 213.333333 93.866667 213.333333 213.333333C725.333333 588.8 631.466667 682.666667 512 682.666667zM512 341.333333c-72.533333 0-128 55.466667-128 128 0 72.533333 55.466667 128 128 128 72.533333 0 128-55.466667 128-128C640 396.8 584.533333 341.333333 512 341.333333z"  horiz-adv-x="1024" />

    
    <glyph glyph-name="dfdfdfdfdf" unicode="&#58890;" d="M1202.834286 350.537143c12.8 0 23.04-9.874286 23.04-22.125714L1225.874286 131.657143c0-12.251429-10.422857-22.125714-23.04-22.125714l-283.428571 0c-12.8 0-23.04 9.874286-23.04 22.125714L896.365714 328.594286c0 12.068571 10.422857 22.125714 23.04 22.125714L1202.834286 350.537143 1202.834286 350.537143 1202.834286 350.537143M1202.834286 397.348571l-283.428571 0c-39.68 0-71.862857-30.902857-71.862857-68.937143l0-259.84c0-38.034286 32.182857-5.851429 71.862857-5.851429l283.428571 0c39.68 0 71.862857 30.902857 71.862857 68.937143L1274.697143 328.594286C1274.88 366.628571 1242.697143 397.348571 1202.834286 397.348571L1202.834286 397.348571 1202.834286 397.348571 1202.834286 397.348571 1202.834286 397.348571M1143.405714 249.965714l-158.171429 0c-13.531429 0-24.32 10.422857-24.32 23.405714 0 12.982857 10.971429 23.405714 24.32 23.405714l158.171429 0c13.531429 0 24.502857-10.422857 24.502857-23.405714C1167.725714 260.388571 1156.937143 249.965714 1143.405714 249.965714L1143.405714 249.965714 1143.405714 249.965714 1143.405714 249.965714M1087.817143 151.588571l-102.765714 0c-13.531429 0-24.32 10.422857-24.32 23.405714 0 12.982857 10.971429 23.405714 24.32 23.405714l102.765714 0c13.531429 0 24.502857-10.422857 24.502857-23.405714C1112.32 162.011429 1101.348571 151.588571 1087.817143 151.588571L1087.817143 151.588571 1087.817143 151.588571 1087.817143 151.588571M783.908571 47.908571c-1.828571 0-3.84 0.182857-5.668571 0.731429-2.377143 0.548571-66.377143-7.862857-122.697143 15.36-83.565714 34.56-124.342857 66.56-124.342857 104.594286 0 23.04 14.445714 103.131429 42.971429 121.234286 19.2 12.251429 45.531429 23.405714 78.262857 33.645714 35.474286 10.971429 70.4 18.285714 91.062857 21.942857l0 38.948571c-30.902857 31.085714-52.845714 64.548571-66.925714 102.034286-14.08 37.12-20.845714 73.325714-20.845714 124.16 0 116.845714 66.377143 180.662857 179.017143 180.662857 59.062857 0 107.702857-20.297143 140.982857-58.88 29.805714-34.56 43.702857-71.497143 43.702857-125.622857 0-100.937143-52.114286-163.108571-54.308571-165.668571-7.68-8.96-21.394286-10.24-30.72-2.925714-9.325714 7.314286-10.605714 20.48-3.108571 29.257143 0.182857 0.365714 11.337143 13.897143 22.308571 37.668571 10.057143 21.942857 22.125714 57.234286 22.125714 101.851429 0 35.84-8.594286 142.811429-141.165714 142.811429-46.08 0-80.64-13.165714-102.765714-39.131429-20.662857-24.137143-32.731429-55.405714-32.731429-99.84 0-93.44 23.588571-147.565714 81.371429-203.154286 4.022857-3.84 6.4-9.142857 6.4-14.811429l0-64.914286c0-10.24-7.862857-19.017143-18.285714-20.662857-0.548571 0-78.628571-20.114286-129.462857-36.022857-66.925714-20.845714-64.365714-89.417143-64.365714-102.765714 0-14.08 25.6-36.388571 97.645714-66.194286 53.394286-22.125714 116.662857-13.348571 117.211429-13.531429 11.52-3.108571 18.468571-14.445714 15.36-25.6C802.194286 53.942857 793.417143 47.908571 783.908571 47.908571L783.908571 47.908571 783.908571 47.908571 783.908571 47.908571M783.908571 47.908571 783.908571 47.908571z"  horiz-adv-x="1756" />

    
    <glyph glyph-name="wen" unicode="&#58902;" d="M543.446 403.767h-71.428c-2.696 0-4.94-0.898-6.737-2.695-2.098-2.098-2.997-4.492-2.696-7.188v-65.586c0-2.098 0.898-4.199 2.696-6.289 1.796-2.097 4.041-3.143 6.737-3.143h71.428c2.694 0 4.94 1.046 6.737 3.143 1.495 2.092 2.394 4.188 2.696 6.289v65.586c0 2.395-0.899 4.638-2.696 6.738-2.401 2.091-4.645 3.144-6.737 3.144zM917.463 109.124c57.569 82.941 87.908 179.441 87.908 280.226 0 272.061-221.306 493.371-493.365 493.371s-493.372-221.342-493.372-493.405c0-271.989 221.311-493.334 493.371-493.371 79.267 0 157.742 19.379 228.016 56.142l181.763-54.568c12.997-3.889 26.842-0.354 36.332 9.171 9.496 9.496 13.028 23.451 9.173 36.334l-49.823 166.103zM370.945 200.66c-0.301-8.382-2.849-15.274-7.636-20.665-4.793-4.786-10.936-7.335-18.419-7.635-7.488 0.301-13.631 2.695-18.419 7.187-4.793 5.694-7.187 12.733-7.187 21.115v285.705c0 8.086 2.246 14.376 6.737 18.867 5.089 4.786 11.379 7.187 18.867 7.187 7.187 0 13.174-2.246 17.97-6.738 5.39-4.793 8.086-11.23 8.086-19.316v-285.703zM401.941 504.334c-7.488 1.194-14.080 5.539-19.766 13.027-13.477 16.768-25.309 29.347-35.489 37.734-6.894 5.685-10.936 12.13-12.131 19.316-0.301 6.886 1.945 13.477 6.739 19.766 4.786 6.289 10.78 9.581 17.97 9.883 7.187 0.596 14.376-1.951 21.561-7.636 35.333-28.749 52.558-51.367 51.66-67.832-0.898-7.489-4.492-13.631-10.78-18.419-6.592-4.794-13.182-6.738-19.767-5.84zM445.515 274.333c-10.486 0.294-18.572 4.189-24.259 11.681-7.187 9.277-10.633 19.014-10.331 29.198v108.712c0 9.279 3.292 17.519 9.883 24.706 7.187 6.886 15.421 10.332 24.706 10.332h118.143c11.974 0.294 22.012-3.3 30.1-10.781 6.886-6.289 10.479-14.376 10.78-24.258v-108.712c-0.301-10.78-4.645-20.368-13.026-28.749-8.388-8.086-17.674-12.13-27.852-12.13h-118.142zM697.977 243.786c0-18.867-7.792-36.389-23.36-52.558-17.371-16.768-53.008-21.407-106.914-13.926-8.689 2.997-14.823 7.791-18.419 14.376-2.696 6.591-2.997 13.477-0.898 20.663 7.187 16.775 19.463 22.012 36.836 15.724 23.359-2.991 38.634-2.247 45.821 2.246 10.178 6.893 15.273 17.673 15.273 32.344v239.435c-0.301 9.883-2.849 17.519-7.635 22.91-4.794 4.786-12.283 7.187-22.461 7.187h-141.954c-8.983 0.294-16.172 2.843-21.561 7.636-4.492 5.089-6.893 11.23-7.187 18.419 0.596 7.784 3.143 13.926 7.636 18.419 5.684 4.786 12.727 7.188 21.113 7.188h163.516c21.562 0.294 36.984-4.94 46.272-15.724 9.277-10.486 13.927-25.156 13.927-44.024v-280.314z"  horiz-adv-x="1024" />

    
    <glyph glyph-name="zuanshi2" unicode="&#58894;" d="M512 864c-264.96 0-480-215.040-480-480s215.040-480 480-480 480 215.040 480 480-215.040 480-480 480zM814.88 458.88c0.48-0.96 0.96-1.92 1.44-2.88h-152.16l66.24 144.48 84.48-141.6zM697.76 622.56c4.8 0 10.56-1.44 15.36-3.84l-68.64-151.2-109.92 155.040h163.2zM623.84 456h-225.6l112.8 159.84 112.8-159.84zM328.64 623.040h159.36l-109.92-155.040-68.16 149.28c5.76 3.36 12.48 5.76 18.72 5.76zM212 459.36l82.080 137.76 64.32-140.64h-148.32c0.48 0.96 1.44 1.92 1.92 2.88zM214.88 425.28c-2.4 2.88-4.32 4.8-5.76 6.72h-1.44l-0.48 0.96h160.8l108-333.12-261.12 325.44zM511.040 64.8l-119.040 368.16h238.56l-118.56-368.16c-0.48 0-0.48 0-0.96 0zM812 424.8l-267.84-334.080 110.4 342.24h162.24c-0.96-2.88-2.4-5.28-4.8-8.16z"  horiz-adv-x="1024" />

    
    <glyph glyph-name="jiaobiao" unicode="&#58888;" d="M0.533457-127.998064h739.559859c156.445466 0 284.444982 128.000484 284.444982 284.444983V896.005809L0.533457-127.99709499999994zM929.238215 264.726271L716.23005 50.257029999999986c-13.741275-13.817766-36.012754-13.817766-49.754998 0a34.274761 34.274761 0 0 0-1.194809 1.266459L522.838445 193.393057c-13.741275 13.81583-13.741275 36.216084-0.002904 50.031914 13.743212 13.817766 36.018563 13.817766 49.756933 0l118.10603-118.922257L880.261684 313.980688c13.743212 13.81583 36.012754 13.81583 49.756933 0 13.737402-13.816798 12.959905-35.434714-0.778465-49.25248z"  horiz-adv-x="1057" />

    
    <glyph glyph-name="jinggao" unicode="&#59012;" d="M510.976182 793.157727c-226.058572 0-409.322479-183.250604-409.322479-409.322479s183.263907-409.322479 409.322479-409.32248c226.046293 0 409.322479 183.250604 409.32248 409.32248s-183.275163 409.322479-409.32248 409.322479z m51.16531-648.085398h-102.33062v102.33062h102.33062v-102.33062z m0 170.533978h-102.33062v306.991859h102.33062v-306.991859z"  horiz-adv-x="1024" />

    
    <glyph glyph-name="jsontijiao" unicode="&#58965;" d="M993.735111 747.093333c0.483556 2.986667 1.820444 5.688889 1.820445 8.846223 0 33.536-27.960889 60.728889-62.378667 60.728888-14.165333 0-26.567111-5.376-37.063111-13.169777l-0.597334 1.109333-832.625777-417.28C42.951111 380.416 28.444444 362.211556 28.444444 340.451556c0-22.670222 15.616-41.102222 36.750223-47.388445l252.728889-84.508444 0.455111 1.052444c4.010667-1.336889 8.078222-2.446222 12.572444-2.446222 22.328889 0 40.448 17.664 40.448 39.338667 0 15.217778-9.159111 28.046222-22.129778 34.673777l0.312889 0.711111-192.796444 63.886223 661.048889 331.264-386.104889-422.257778c-11.776-9.728-20.309333-25.457778-20.309334-41.671111 0-4.323556 1.109333-42.609778 1.109334-42.609778v-179.655111c0-21.845333 18.090667-39.509333 40.476444-39.509333 22.328889 0 40.419556 17.664 40.419556 39.452444V149.902222l287.175111-96.056889c7.281778-3.896889 15.075556-6.656 23.950222-6.656 27.562667 0 49.891556 21.731556 49.891556 48.668445 0 0.113778-0.312889 0.284444-0.312889 0.398222L995.555556 746.666667l-1.820445 0.426666z m-213.333333-609.763555l-266.780445 89.998222L889.002667 637.127111l-108.600889-499.797333z"  horiz-adv-x="1024" />

    
    <glyph glyph-name="xiangmu" unicode="&#58913;" d="M940.440973 367.383573H532.24632c-33.349909 0-60.262065 25.280671-60.262066 56.572851s26.956251 56.558153 60.262066 56.558153h408.194653c33.349909 0 60.262065-25.265973 60.262065-56.558153s-27.19142-56.572851-60.262065-56.572851m0-223.851525H532.24632c-33.349909 0-60.262065 25.280671-60.262066 56.572851s26.956251 56.558153 60.262066 56.558153h408.194653c33.349909 0 60.262065-25.265973 60.262065-56.558153s-27.19142-56.572851-60.262065-56.572851m277.13201-184.842862v715.35481c0 86.894959-84.425684 78.708137-84.425684 78.708136s-503.967243-0.485036-477.010992 0c-28.734717-0.485036-43.373989 14.198331-43.373989 14.198331s-20.004066 32.497421-56.190701 83.514403C518.856383 904.142199 474.923867 895.485039 474.923867 895.485039H103.930016C1.043563 895.485039 0 802.578572 0 802.578572v-839.259496c0-103.503772 83.396819-90.745852 83.396819-90.745851h1057.437568c89.305441 0 76.738596 86.174753 76.738596 86.174753m-75.695033 42.374521c0-32.027083-27.455985-57.778092-61.584891-57.778093H137.294623c-34.128906 0-61.584891 25.751009-61.584892 57.778093V599.892259c0 32.012385 27.455985 57.763394 61.584892 57.763394h942.998436c34.128906 0 61.584891-25.751009 61.584891-57.763394v-598.843251m-898.051754 422.907416c0-33.379305 28.837603-60.423744 64.406919-60.423744s64.40692 27.044439 64.40692 60.423744-28.837603 60.409046-64.40692 60.409046-64.40692-27.044439-64.406919-60.409046m0-223.851525c0-33.364607 28.837603-60.409046 64.406919-60.409046s64.40692 27.044439 64.40692 60.409046-28.837603 60.409046-64.40692 60.409046-64.40692-27.044439-64.406919-60.409046m0 0"  horiz-adv-x="1218" />

    
    <glyph glyph-name="wenjian" unicode="&#59056;" d="M689.916621 535.588487H491.687884a8.765641 8.765641 0 0 0-8.768711 8.768711v21.919219c0 12.087293-9.834996 21.922289-21.922289 21.922288H314.872852c-12.839423 0-23.284309-10.443863-23.284309-23.277146v-65.044412h422.289815v12.434194c0 13.051247-10.526751 23.277146-23.961737 23.277146zM291.588543 222.09044700000004c0-12.847609 10.444886-23.294542 23.284309-23.294543h375.72836c12.837376 0 23.277146 10.446933 23.277146 23.294543V456.03257H291.588543v-233.942123zM778.268878 820.789041H245.732146c-99.133811 0-179.496094-80.361259-179.496094-179.494047v-514.589988c0-99.130741 80.362282-179.494047 179.496094-179.494047H778.268878c99.131765 0 179.494047 80.363306 179.494047 179.494047v514.589988c0 99.132788-80.362282 179.494047-179.494047 179.494047z m-20.536732-598.698594c0-37.012985-30.117948-67.140143-67.130934-67.140143H314.872852c-37.015032 0-67.12991 30.127158-67.12991 67.140143V564.9225819999999c0 37.011962 30.114878 67.12377 67.12991 67.123771h146.124032c31.371498 0 58.223053-22.532179 64.385403-52.615335H689.916621c37.388539 0 67.815525-30.108738 67.815525-67.11763v-290.222941z"  horiz-adv-x="1024" />

    
    <glyph glyph-name="ren" unicode="&#58979;" d="M935.063585-73.985759c0 131.309931-56.764522 252.961899-156.510181 337.069332h0.89544l-17.940787 13.655465a30.093192 30.093192 0 0 1-42.437476-5.692442 30.285072 30.285072 0 0 1 5.692442-42.405497 378.003748 378.003748 0 0 0 149.762399-302.626858H113.369144c0 209.852842 170.741287 380.562149 380.562149 380.562149 162.330543 0 294.407995 132.045472 294.407995 294.376015S656.261836 895.3604 493.931293 895.3604 199.555278 763.282948 199.555278 600.952405c0-56.764522 16.309806-111.930044 47.202498-159.484323A296.390756 296.390756 0 0 1 352.099938 343.385384 445.673454 445.673454 0 0 1 142.790756 192.439725a436.11143 436.11143 0 0 1-89.927795-266.425484v-53.982261h882.200624v53.982261zM260.125422 600.952405c0 128.94341 104.894441 233.869831 233.837851 233.869831s233.869831-104.894441 233.869831-233.869831c0-128.94341-104.926421-233.869831-233.869831-233.869832-128.94341 0.03198-233.837851 104.958401-233.837851 233.869832z"  horiz-adv-x="1024" />

    
    <glyph glyph-name="duoxuan" unicode="&#58889;" d="M825.115324 832.051549H198.883653c-71.082942 0-128.907928-57.82601-128.907929-128.907928v-638.269845c0-71.088058 57.82601-128.924301 128.907929-128.924302h626.231671c71.082942 0 128.914068 57.836243 128.907928 128.924302V703.143621c0 71.081918-57.831126 128.907928-128.907928 128.907928z m-52.149731-320.144414l-298.093188-298.099329a29.824259 29.824259 0 0 0-21.13946-8.747221 29.79049 29.79049 0 0 0-21.134343 8.752338L251.141854 395.270694c-11.733229 11.613502-11.831466 30.53955-0.217964 42.27278 11.613502 11.733229 30.53955 11.830443 42.272779 0.217964l0.217964-0.217964 160.320359-160.316266 276.956799 276.957823c11.6749 11.672854 30.602995 11.67183 42.275849-0.00307 11.673877-11.673877 11.672854-30.601972-0.002047-42.274826z"  horiz-adv-x="1024" />

    
    <glyph glyph-name="iconfont-daojishi" unicode="&#58918;" d="M512.001 206.726c-22.599 0-40.91 18.325-40.91 40.909v54.837c-16.473 12.443-27.273 31.99-27.273 54.254 0 22.266 10.8 41.814 27.273 54.254v163.927c0 22.585 18.311 40.909 40.91 40.909s40.91-18.324 40.91-40.909v-163.928c16.456-12.439 27.273-31.987 27.273-54.254 0-22.264-10.816-41.812-27.273-54.254v-54.837c-0.001-22.582-18.311-40.907-40.91-40.907zM848.087 654.249l-18.937-18.938c65.489-74.493 105.575-171.837 105.575-278.586 0-233.095-189.629-422.725-422.726-422.725-233.098 0-422.726 189.63-422.726 422.726 0 77.701 21.193 150.429 57.946 212.961l65.706-49.562c-26.632-48.55-41.835-104.223-41.835-163.399 0-187.979 152.927-340.91 340.91-340.91 187.979 0 340.91 152.928 340.91 340.91 0 187.98-152.927 340.91-340.907 340.91-77.108 0-148.080-26.033-205.255-69.362l-53.753 61.434c54.81 42.598 120.142 72.303 191.612 83.829 3.875 33.984 32.387 60.461 67.396 60.461s63.521-26.477 67.408-60.461c80.166-12.917 152.716-48.284 211.176-99.661l18.937 18.935-38.434 38.437 48.209 48.204 115.431-115.428-48.207-48.21-38.432 38.434z"  horiz-adv-x="1024" />

    
    <glyph glyph-name="-" unicode="&#58903;" d="M527.3088 288.256c-48.8448 0.05632-88.42752 39.63392-88.47872 88.48384 0 48.77824 39.7056 88.48384 88.47872 88.48384 48.77824 0 88.48896-39.7056 88.48896-88.48384-0.0512-48.84992-39.63904-88.42752-88.48896-88.48384z m0 117.99552a29.55776 29.55776 0 0 1-29.50656-29.4912 29.54752 29.54752 0 0 1 29.50656-29.51168 29.53216 29.53216 0 0 1 29.4912 29.51168 29.52704 29.52704 0 0 1-29.4912 29.4912zM527.3088 199.77216c-130.11456 0-235.96032 79.39072-235.96032 176.96768 0 97.58208 105.84576 176.96256 235.96032 176.96256 130.0992 0 235.96544-79.38048 235.96544-176.96256 0-97.58208-105.84576-176.96768-235.96544-176.96768z m0 294.95808c-95.92832 0-176.96256-54.016-176.96256-117.97504 0-63.9744 81.03424-117.9904 176.96256-117.9904 95.92832 0 176.96768 54.016 176.96768 117.9904 0.00512 63.95904-81.03424 117.97504-176.96768 117.97504zM558.0288 634.88a30.72 30.72 0 0 0-61.44 0v46.08a30.72 30.72 0 1 0 61.44 0v-46.08zM725.87264 579.9424a30.70976 30.70976 0 0 0-41.96352-11.24352 30.70464 30.70464 0 0 0-11.2384 41.9584l23.04 39.9104a30.72 30.72 0 0 0 41.9584 11.24352 30.70976 30.70976 0 0 0 11.24352-41.96352l-23.04-39.90528zM327.46496 579.9424a30.70976 30.70976 0 0 1 41.96352-11.24352 30.70464 30.70464 0 0 1 11.2384 41.9584l-23.04 39.9104a30.72 30.72 0 0 1-41.9584 11.24352 30.70976 30.70976 0 0 1-11.24352-41.96352l23.04-39.90528z"  horiz-adv-x="1024" />

    
    <glyph glyph-name="boshiweb_liuyan" unicode="&#58931;" d="M512 784c-222.23 0-403-156.8-403-349.56 0-91.86 40.29-177.89 113.7-243.43l45-182.6a32.08 32.08 0 0 1 45.87-20.83L502.3 85q4.84-0.1 9.7-0.11c222.23 0 403 156.8 403 349.56S734.23 784 512 784z m0-634.95c-5.27 0-10.5 0.08-15.72 0.31a31.94 31.94 0 0 1-16.06-3.52l-160-82.58-37.73 153A31.83 31.83 0 0 1 272.07 233c-63.78 53.94-98.92 125.48-98.92 201.4 0 157.35 152 285.39 338.86 285.39s338.86-128 338.86-285.39S698.85 149.05 512 149.05zM725.64 490.31a50.13 50.13 0 1 1 50.13-50.13 50.15 50.15 0 0 1-50.13 50.13zM525.13 490.31a50.13 50.13 0 1 1 50.13-50.13 50.14 50.14 0 0 1-50.13 50.13zM324.59 490.31a50.13 50.13 0 1 1 50.13-50.13 50.15 50.15 0 0 1-50.13 50.13z"  horiz-adv-x="1024" />

    
    <glyph glyph-name="111115555555icontemplate" unicode="&#58880;" d="M851.96 744h-99.96v-55.74h90c16.56 0 30-12.48 30-27.84v-612.84c0-15.36-13.44-27.84-30-27.84h-660c-16.56 0-30 12.48-30 27.84v612.84c0 15.42 13.44 27.84 30 27.84h90v55.74h-100.020c-44.16 0-79.98-43.62-79.98-97.5v-585c0-53.82 35.82-97.5 79.98-97.5h679.98c44.28 0 80.040 43.68 80.040 97.5v585c0 53.88-35.76 97.5-80.040 97.5zM632 864h-240c-33.18 0-60-26.88-60-60v-180c0-33.18 26.82-60 60-60h240c33.18 0 60 26.82 60 60v180c0 33.12-26.82 60-60 60zM632 654c0-16.56-13.44-30-30-30h-180c-16.56 0-30 13.44-30 30v120c0 16.56 13.44 30 30 30h180c16.56 0 30-13.44 30-30v-120zM272 444h480v-60h-480v60zM272 324h480v-60h-480v60zM272 204h480v-60h-480v60z"  horiz-adv-x="1024" />

    
    <glyph glyph-name="site-copy" unicode="&#58891;" d="M1021.907 42.066c0-103.468-256.684-157.595-510.244-157.595-253.548 0-510.224 54.128-510.224 157.595 0 91.809 197.719 130.077 282.733 142.268 12.619 1.764 24.357-6.969 26.166-19.609 1.819-12.633-6.964-24.35-19.611-26.164-177.054-25.391-243.043-72.665-243.043-96.5 0-45.407 180.75-111.346 463.981-111.346 283.249 0 463.996 65.939 463.996 111.346 0 24.022-66.621 71.551-245.401 96.827-12.642 1.789-21.453 13.498-19.663 26.131 1.796 12.642 13.536 21.364 26.128 19.663 85.749-12.132 285.178-50.3 285.178-142.624zM413.835 591.354c0 53.948 43.877 97.836 97.815 97.836 53.959 0 97.862-43.889 97.862-97.836 0-53.946-43.905-97.834-97.862-97.834-53.938 0.001-97.815 43.89-97.815 97.834zM655.764 591.354c0 79.451-64.644 144.082-144.108 144.082-79.439 0-144.062-64.634-144.062-144.082 0-79.446 64.624-144.083 144.062-144.083 79.465 0.001 144.108 64.639 144.108 144.083zM511.664 839.756c142.294 0 258.048-115.751 258.048-258.028 0-197.142-199.853-418.638-258.238-479.127-58.546 59.397-257.831 276.474-257.831 479.127 0 142.274 115.747 258.028 258.021 258.028zM495.876 53.045l15.986-14.931 15.797 15.127c11.766 11.277 288.295 278.983 288.295 528.48 0 167.78-136.502 304.275-304.292 304.275-167.773 0-304.265-136.494-304.265-304.275 0.001-256.224 276.701-517.669 288.479-528.681z"  horiz-adv-x="1024" />

    
    <glyph glyph-name="dian" unicode="&#58909;" d="M512 576a192.064 192.064 0 0 0 0-384 192 192 0 0 0 0 384z"  horiz-adv-x="1024" />

    
    <glyph glyph-name="jinggao2" unicode="&#58911;" d="M961.369-124.986H141.063c-55.01 0-99.202 21.701-121.272 59.552-22.076 37.85-19.39 87.293 7.396 135.606l413.89 746.48c26.941 48.666 67.004 76.561 109.866 76.561 42.867 0 82.89-27.86 109.907-76.483l414.323-746.635c26.78-48.314 29.55-97.72 7.433-135.565-22.035-37.85-66.263-59.516-121.237-59.516zM550.984 814.852c-13.628 0-29.239-13.595-41.894-36.362L95.202 31.933c-12.968-23.43-16.004-44.475-8.258-57.752 7.753-13.244 27.488-20.85 54.119-20.85h820.306c26.673 0 46.372 7.565 54.119 20.85 7.704 13.242 4.71 34.28-8.293 57.71l-414.318 746.6c-12.618 22.766-28.306 36.361-41.893 36.361z m0.233-586.348c-21.488 0-38.93 17.516-38.93 39.182v352.63c0 21.63 17.442 39.183 38.93 39.183 21.492 0 38.934-17.554 38.934-39.183v-352.63c0-21.666-17.442-39.182-38.934-39.182z m-0.279-191.523c33.503 0 60.663 27.382 60.663 61.16 0 33.777-27.16 61.159-60.663 61.159s-60.663-27.382-60.663-61.16c0-33.777 27.16-61.16 60.663-61.16z"  horiz-adv-x="1104" />

    
    <glyph glyph-name="dianhuaben-kongxin" unicode="&#59665;" d="M876.8 46.933333c0-36.266667-29.866667-66.133333-66.133333-66.133333H221.866667c-12.8 0-25.6 10.666667-25.6 25.6v85.333333h19.2c21.333333 0 40.533333 17.066667 40.533333 40.533334 0 21.333333-17.066667 40.533333-40.533333 40.533333h-17.066667v183.466667h19.2c21.333333 0 40.533333 17.066667 40.533333 40.533333 0 21.333333-17.066667 40.533333-40.533333 40.533333h-19.2v164.266667h19.2c21.333333 0 40.533333 17.066667 40.533333 40.533333 0 21.333333-17.066667 40.533333-40.533333 40.533334h-19.2V768c0 12.8 10.666667 25.6 25.6 25.6h595.2c36.266667 0 66.133333-29.866667 66.133333-66.133333v-678.4M812.8 853.333333H221.866667c-46.933333 0-85.333333-38.4-85.333334-85.333333v-85.333333h-14.933333c-21.333333 2.133333-40.533333-14.933333-40.533333-38.4 0-21.333333 17.066667-40.533333 40.533333-40.533334h14.933333v-162.133333h-14.933333c-21.333333 0-40.533333-17.066667-40.533333-40.533333 0-21.333333 17.066667-40.533333 40.533333-40.533334h14.933333V170.666667h-14.933333c-21.333333 0-40.533333-17.066667-40.533333-42.666667 0-21.333333 17.066667-40.533333 40.533333-40.533333h14.933333v-85.333334c0-46.933333 38.4-85.333333 85.333334-85.333333h595.2c70.4 0 128 57.6 128 128V725.333333c-4.266667 72.533333-61.866667 128-132.266667 128m-174.933333-582.4c-25.6-19.2-76.8 29.866667-119.466667 81.066667s-83.2 108.8-59.733333 130.133333c36.266667 29.866667 64 44.8 14.933333 117.333334s-89.6 25.6-125.866667-6.4c-38.4-32-17.066667-164.266667 100.266667-302.933334s245.333333-183.466667 283.733333-153.6c32 27.733333 89.6 59.733333 25.6 119.466667-61.866667 70.4-83.2 42.666667-119.466666 14.933333z"  horiz-adv-x="1024" />

    
    <glyph glyph-name="shezhi" unicode="&#58954;" d="M404.48-35.84c-8.192-6.144-18.944-7.68-28.672-4.608-59.392 18.944-113.152 49.152-159.744 90.624-7.68 6.656-11.776 16.896-10.752 27.136l8.192 74.752c3.584 34.816-15.36 68.096-47.616 82.432l-71.68 31.744c-9.216 4.096-16.384 12.288-18.432 22.528-6.656 30.72-10.24 62.464-10.24 93.696 0 28.672 3.072 57.856 8.192 86.016 2.048 10.24 8.704 18.944 18.432 23.04l73.216 32.256c32.256 14.336 51.2 47.616 47.616 82.432l-8.704 80.896c-1.024 10.24 2.56 20.48 10.752 27.136 45.056 39.936 96.768 70.144 153.6 89.088 9.728 3.072 20.48 1.536 29.184-4.608l66.048-48.128c28.16-20.992 67.072-20.992 95.232 0l65.536 47.616c8.192 6.144 19.456 7.68 29.184 4.608 56.832-19.456 109.568-50.176 154.112-90.624 7.68-6.656 11.264-16.896 10.24-27.136l-8.704-79.36c-3.584-34.816 15.36-68.096 47.616-82.432l70.656-31.232c9.728-4.096 16.384-12.8 18.432-23.04 5.632-28.672 8.704-57.856 8.704-87.04 0-31.744-3.584-64-10.24-95.232-2.048-9.728-9.216-18.432-18.432-22.528l-69.12-30.208c-32.256-14.336-51.2-47.104-47.616-82.432l8.192-73.216c1.024-10.24-2.56-20.48-10.24-27.136-46.592-41.984-100.864-73.216-160.256-92.16-9.728-3.072-20.48-1.536-28.672 4.608l-59.392 43.52c-28.672 20.992-66.56 20.992-95.232 0L404.48-35.84z m-133.632 123.392c32.768-26.624 69.632-47.616 109.056-61.952l46.592 33.792c50.688 37.376 119.808 37.376 170.496 0l45.568-33.28c39.936 14.848 76.8 35.84 109.568 62.976l-6.144 56.32c-6.656 62.976 27.648 122.368 85.504 147.968L885.76 317.44c3.584 22.016 5.632 44.032 5.632 66.048 0 19.456-1.536 39.424-4.608 58.88L832 465.92c-57.856 25.6-92.16 84.992-85.504 147.968l6.656 62.464c-31.232 26.112-66.56 46.592-104.448 61.44l-51.712-37.888c-51.2-37.376-119.808-37.376-170.496 0l-52.224 38.4c-37.888-14.336-72.704-34.816-103.936-60.416l7.168-64C284.16 550.912 249.856 491.52 192 465.92l-57.344-25.088c-3.072-18.944-4.608-38.4-4.608-57.344 0-21.504 2.048-43.52 5.632-64.512l56.32-24.576c57.344-25.6 92.16-84.992 85.504-147.968l-6.656-58.88zM510.976 542.72c-88.064 0-159.744-71.68-159.744-159.744s71.68-159.744 159.744-159.744 159.744 71.68 159.744 159.744S599.04 542.72 510.976 542.72z m0-255.488c-52.736 0-95.744 43.008-95.744 95.744s43.008 95.744 95.744 95.744 95.744-43.008 95.744-95.744-43.008-95.744-95.744-95.744z"  horiz-adv-x="1024" />

    
    <glyph glyph-name="kefu" unicode="&#59002;" d="M515.2 102.4h16c51.2 6.4 92.8 38.4 108.8 83.2 0 3.2 0 6.4-3.2 9.6-3.2 0-6.4 0-9.6-3.2 0 0-19.2-28.8-99.2-38.4-9.6 0-22.4-3.2-35.2-3.2-54.4 0-80 19.2-80 19.2-3.2 3.2-6.4 3.2-9.6 0-3.2-3.2-3.2-6.4 0-9.6 25.6-35.2 67.2-57.6 112-57.6z m422.4 444.8C889.6 729.6 716.8 864 505.6 864 288 864 108.8 723.2 67.2 534.4 32 528 0 496 0 460.8v-150.4c0-41.6 38.4-76.8 83.2-76.8 28.8 0 48 9.6 64 28.8 38.4-86.4 112-160 204.8-195.2 0 0 3.2 3.2 3.2 6.4s3.2 3.2 3.2 3.2h3.2c-19.2 16-102.4 89.6-118.4 195.2-6.4 48 32 92.8 73.6 99.2 70.4 12.8 144 25.6 214.4 38.4 44.8 6.4 80 28.8 96 67.2 3.2 9.6 9.6 25.6 12.8 51.2 0 3.2 3.2 6.4 9.6 6.4 3.2 0 6.4 0 6.4-3.2h3.2c28.8-38.4 86.4-121.6 92.8-208 9.6-99.2 3.2-166.4-80-236.8v-6.4c0-3.2 0-3.2 3.2-6.4h3.2s3.2 0 3.2 3.2c86.4 41.6 150.4 112 182.4 198.4 12.8-16 32-28.8 54.4-32-35.2-147.2-182.4-240-358.4-252.8-9.6 25.6-38.4 41.6-67.2 41.6-41.6 0-70.4-28.8-70.4-64s35.2-64 70.4-64 60.8 19.2 67.2 44.8c208 16 371.2 128 406.4 300.8 38.4 9.6 57.6 35.2 57.6 67.2v150.4c0 48-38.4 80-86.4 80zM864 505.6c-54.4 131.2-195.2 227.2-358.4 227.2S201.6 640 147.2 505.6l-9.6 9.6c32 160 185.6 281.6 364.8 281.6 185.6 0 336-121.6 364.8-281.6 0-3.2-3.2-6.4-3.2-9.6zM352 60.8z"  horiz-adv-x="1024" />

    
    <glyph glyph-name="xing" unicode="&#59065;" d="M566.784 821.248l95.232-201.216c8.704-18.944 26.112-31.744 46.08-34.816l212.48-32.256c50.176-7.68 70.144-72.192 33.792-109.056l-153.6-157.184c-14.336-14.848-20.992-35.84-17.408-56.832l36.352-221.184c8.704-52.224-44.032-92.16-89.088-67.584L540.16 46.08c-17.92 9.728-38.912 9.728-56.832 0l-189.952-104.448c-45.056-24.576-97.28 15.36-89.088 67.584L240.64 230.4c3.584 20.992-3.072 41.984-17.408 56.832L69.12 443.392c-36.352 36.864-16.384 101.376 33.792 109.056l212.48 32.256c19.968 3.072 37.376 15.872 46.08 34.816l95.232 201.216c22.528 48.128 87.552 48.128 110.08 0.512z"  horiz-adv-x="1024" />

    
    <glyph glyph-name="quxiaodingdan" unicode="&#58892;" d="M887.891 561.323c0 8.47-4.229 15.944-10.682 20.441L628.745 825.378c-2.074 2.031-4.487 3.512-7.03 4.686-0.747 0.348-1.53 0.53-2.315 0.804a24.569 24.569 0 0 1-6.538 1.32c-0.538 0.035-0.997 0.311-1.543 0.311H161.021c-13.745 0-24.889-11.144-24.889-24.889v-846.222c0-13.745 11.144-24.889 24.889-24.889h367.318c13.745 0 24.889 11.144 24.889 24.889s-11.144 24.889-24.889 24.889H185.91V782.722h400.519v-221.399c0-13.745 11.144-24.889 24.889-24.889h226.297v-230.319c0-13.745 11.144-24.889 24.889-24.889s24.889 11.144 24.889 24.889V558.856c0.088 0.852 0.498 1.592 0.498 2.467z m-251.684 24.889V748.354L801.57 586.212H636.207zM879.663 183.286c-9.929 9.491-25.667 9.102-35.182-0.863l-79.072-83.016-79.072 83.016c-9.503 9.953-25.229 10.342-35.194 0.863-9.953-9.479-10.33-25.229-0.851-35.182l80.751-84.778-80.751-84.778c-9.479-9.953-9.102-25.703 0.851-35.182a24.805 24.805 0 0 1 17.172-6.866 24.807 24.807 0 0 1 18.023 7.729l79.072 83.016 79.072-83.016a24.803 24.803 0 0 1 18.023-7.729c6.174 0 12.347 2.273 17.16 6.866 9.965 9.479 10.342 25.229 0.863 35.182l-80.751 84.778 80.751 84.778c9.477 9.953 9.101 25.703-0.865 35.182z"  horiz-adv-x="1024" />

    
    <glyph glyph-name="yue1-copy" unicode="&#58915;" d="M611.686 299.692v0c16.748 0.201 30.387 13.84 30.387 30.588 0 16.849-13.639 30.488-30.387 30.588v0.1h-61.677c0.1 0.702-0.1 1.303 0 2.005l72.308 73.912c11.834 13.339 5.816 24.27-6.117 36.304-12.035 12.135-31.591 14.642-41.319 4.112l-62.179-66.291-67.193 67.093c-8.424 8.525-25.072 5.816-36.907-6.117-11.934-11.934-14.642-28.482-6.218-36.907l68.698-68.698c-1.303-1.605-2.106-3.51-2.608-5.416h-55.861v-0.1h-0.201c-16.949 0-30.588-13.639-30.588-30.588 0-16.849 13.639-30.588 30.588-30.588h0.201v-0.1h61.177v-30.488h-61.177v-0.1h-0.201c-16.949 0-30.588-13.74-30.588-30.688 0-16.849 13.639-30.588 30.588-30.588h61.376c0 0-0.1-35.703-0.1-38.21 0-21.16 17.15-38.31 38.31-38.31 21.16 0 38.31 17.15 38.31 38.31 0 2.608-0.401 38.21-0.401 38.21h61.778c16.748 0.1 30.387 13.74 30.387 30.588s-13.639 30.487-30.387 30.588v0.1h-61.778v30.488l61.778 0.201zM635.555 656.419l33.096 41.319c0.1 0.1 0.1 0.1 0.201 0.201l6.419 8.023c4.012 5.014 5.617 11.433 4.714 17.651 0.201 1.303 0.301 2.808 0.301 4.413 0 16.347-8.625 31.089-22.465 39.313-3.008 2.808-6.719 4.914-10.932 5.816-3.008 0.602-74.314 15.846-141.006 15.846h-1.705c-63.984-0.301-139-15.143-142.108-15.745-4.313-0.903-8.123-2.908-11.232-5.816-13.941-8.123-22.565-22.866-22.565-39.313 0-1.705 0.1-3.309 0.301-4.714-0.802-6.117 0.803-12.336 4.714-17.349l5.917-7.321c0.201-0.301 0.502-0.602 0.802-0.903s0.502-0.602 0.803-0.903l36.404-45.43c-141.406-65.99-247.713-223.142-247.713-373.675 0-204.488 121.55-299.663 382.5-299.663 260.951 0 382.5 95.274 382.5 299.663 0 154.343-112.022 315.809-258.945 378.589v0zM375.307 726.621c-0.201 0.301-0.502 0.602-0.803 0.903v0.1c0 0.201-0.1 0.401-0.201 0.602 1.003 0.401 2.106 0.903 3.008 1.505 19.055 3.51 77.623 13.438 127.165 13.639h1.505c51.047 0 106.908-10.029 125.26-13.538 1.003-0.602 2.106-1.203 3.109-1.605v-0.1c0-0.201-0.1-0.401-0.1-0.602l-0.401-0.602c-0.4-0.502-0.802-1.003-1.203-1.505l-47.136-58.769h-162.166l-47.336 59.169c-0.201 0.201-0.502 0.502-0.702 0.802v0zM512 23.498c-236.179 0-336.969 76.018-336.969 254.231 0 140.504 110.618 293.444 247.311 343.287h173.8c0.602 0 1.103 0.1 1.705 0.201h3.309c136.994-49.542 247.813-202.783 247.813-343.387 0-178.312-100.79-254.332-336.969-254.332v0z"  horiz-adv-x="1024" />

    
    <glyph glyph-name="wancheng" unicode="&#59040;" d="M537.458566-56.253132H206.497207c-34.716226 0-64.803623 27.772981-64.803623 62.489208v763.756983c0 34.716226 27.772981 62.489208 64.803623 62.489207h384.192906V705.189436c0-69.432453 57.860377-127.29283 127.292831-127.292831h127.29283V334.88302c0-30.087396 64.803623-34.716226 64.803623 0V640.385813L653.179321 894.971474c-4.62883 0-20.829736 2.314415-64.803623 0H204.182792c-71.746868 0-127.29283-57.860377-127.292831-127.292831v-763.756982c0-69.432453 57.860377-127.29283 127.292831-127.292831h328.646944c32.401811 2.314415 39.345057 67.118038 4.62883 67.118038z m115.720755 891.049813l192.096453-189.782038h-127.29283c-34.716226 0-64.803623 27.772981-64.803623 62.489208V834.796681z m249.956831-590.17585l-201.354114-226.81268-124.978415 122.664001-62.489208-60.174793 187.467623-185.153208 263.843321 289.301887-62.489207 60.174793z"  horiz-adv-x="1024" />

    
    <glyph glyph-name="shenheweitongguo" unicode="&#58895;" d="M579.13841 704.261166A31.953278 31.953278 0 0 1 611.091688 736.214443a31.953278 31.953278 0 0 1-31.953278 31.93411H374.671936a31.953278 31.953278 0 0 1-31.953278-31.953278A31.953278 31.953278 0 0 1 374.671936 704.261166z m191.68133-159.728052a31.953278 31.953278 0 0 1-9.354049 22.58006 31.953278 31.953278 0 0 1-22.599229 9.354049H227.729028a31.953278 31.953278 0 0 1-31.953278-31.934109A31.953278 31.953278 0 0 1 227.729028 512.579836h511.137434a31.953278 31.953278 0 0 1 30.669013 31.953278zM349.120814 320.898506H227.729028a31.953278 31.953278 0 0 1-31.953278-31.934109A31.953278 31.953278 0 0 1 227.729028 257.011119h121.391786A31.953278 31.953278 0 0 1 381.074092 288.964397 31.953278 31.953278 0 0 1 349.120814 320.898506zM227.729028 448.692449A31.953278 31.953278 0 0 1 195.77575 416.739171 31.953278 31.953278 0 0 1 227.729028 384.785893h255.568717a31.953278 31.953278 0 0 1 0 63.887388z m222.350343-511.137434H130.604098a27.467935 27.467935 0 0 0-21.525813 6.823855 27.467935 27.467935 0 0 0-9.143199 20.644079v839.564225a27.467935 27.467935 0 0 0 8.050615 19.436487 27.467935 27.467935 0 0 0 19.417319 8.050616h711.137734a27.467935 27.467935 0 0 0 27.467934-27.467935V416.739171a31.953278 31.953278 0 0 1 63.887387 0V804.568006a91.355322 91.355322 0 0 1-26.835386 64.596608 91.355322 91.355322 0 0 1-64.596608 26.835386h-711.137733a91.355322 91.355322 0 0 1-64.596609-26.835386 91.37449 91.37449 0 0 1-26.835386-64.596608v-839.564225a91.37449 91.37449 0 0 1 91.37449-91.37449h319.60945a31.953278 31.953278 0 0 1 0 63.887388zM732.483474 383.137434a255.568717 255.568717 0 1 1 255.568717-255.568717 255.568717 255.568717 0 0 1-255.568717 255.568717z m111.941897-331.608701a25.110254 25.110254 0 0 0-35.42271-35.595222l-74.353188 74.755718-77.841788-78.205982a27.582943 27.582943 0 1 0-38.91131 39.102991l77.841788 78.186814-74.42986 74.64071a25.091086 25.091086 0 1 0 35.422709 35.537719l74.353188-74.64071 77.841788 78.186814a27.582943 27.582943 0 0 0 38.91131-39.102991l-77.841788-78.186814z"  horiz-adv-x="1024" />

    
    <glyph glyph-name="gengduo" unicode="&#59015;" d="M65.01376 777.68704H181.76v-111.1552H65.01376v111.1552zM65.01376 444.21632H181.76v-111.1552H65.01376v111.1552zM65.01376 110.75072H181.76v-111.16032H65.01376v111.16032zM287.32416 777.68704H954.2656v-111.1552H287.32416v111.1552zM287.32416 444.21632H954.2656v-111.1552H287.32416v111.1552zM287.32416 110.75072H954.2656v-111.16032H287.32416v111.16032z"  horiz-adv-x="1024" />

    
    <glyph glyph-name="icon_pw" unicode="&#58904;" d="M519.2 343.3c-41.1 0-74.4-33.3-74.4-74.4 0-29.7 17.5-55 42.5-67.1v-81.9c0-17.6 14.3-31.9 31.9-31.9 17.6 0 31.9 14.3 31.9 31.9v81.9c25.1 12 42.5 37.4 42.5 66.9 0 41.3-33.2 74.6-74.4 74.6zM827.6-62.1H189.4c-35.9 0-65.1 29.2-65.1 65.1V428.4c0 35.9 29.2 65.1 65.1 65.1h638.2c17.3 0 33.7-6.7 46-19.1 12.3-12.3 19.1-28.7 19.1-46V3c0-35.9-29.2-65.1-65.1-65.1zM231.9 427.2c-34.8 0-41.3-6.6-41.3-41.3v-340.4c0-34.8 6.6-41.3 41.3-41.3h553.2c34.8 0 41.3 6.6 41.3 41.3V385.9c0 34.8-6.6 41.3-41.3 41.3H231.9zM519.2 86.7c-18.3 0-33.2 14.8-33.2 33.2V201c-26.3 12.8-42.6 38.8-42.6 67.8 0 41.8 33.9 75.7 75.7 75.7s75.7-33.9 75.7-75.7c0-29-16.3-55-42.5-67.8v-81.1c0.1-18.2-14.9-33.2-33.1-33.2zM519.2 342c-40.4 0-73.2-32.9-73.2-73.2 0-28.3 16.1-53.6 41.9-65.8l0.7-0.4V120c0-17 13.7-30.7 30.7-30.7S550 103.1 550 120v82.6l0.7 0.4c25.8 12.3 41.9 37.5 41.9 65.8-0.2 40.4-33.1 73.2-73.4 73.2zM207 523.1c-9.1 0-17.6 3.5-23.9 10-6.4 6.4-10 15-10 23.9v2h-0.2l0.2 1.4c0.1 0.5 0.1 0.9 0.2 1.4l0.2 1c0.1 0.6 0.2 1.4 0.4 2 15.3 75.7 57 144.2 117.2 193 29.9 24.2 63.4 43 99.8 56 37.5 13.3 77 20.2 117.5 20.2 61 0 120.8-16.3 173-47.2 50.6-29.9 93-72.8 122.5-123.8 4-5.6 6.1-12.2 6.1-19.2 0-18.3-15-33.3-33.3-33.3-13.2 0-25.1 7.7-30.4 19.8-49.2 84.6-140.4 137.4-238 137.4-128.1 0-238.2-87.1-267.6-211.8v-0.2c-0.7-18.4-15.4-32.6-33.7-32.6z"  horiz-adv-x="1024" />

    
    <glyph glyph-name="shijian" unicode="&#58885;" d="M511.94 896C229.188 896 0 666.776 0 384c0-282.798 229.187-512 511.94-512C794.738-128 1024 101.202 1024 384 1024 666.776 794.739 896 511.94 896z m0-941.877C274.603-45.877 82.124 146.58 82.124 384c0 237.398 192.48 429.872 429.818 429.872 237.515 0 429.936-192.474 429.936-429.872 0-237.42-192.421-429.877-429.936-429.877z m49.166 408.066c-12.156 13.044-22.871 38.248-23.841 56.051l-14.86 280.233c-0.95 17.801-13.977 32.365-28.939 32.365-14.963 0-27.964-14.564-28.912-32.365l-15.22-285.125c-0.944-17.802-0.63-40.583 0.695-50.668 1.34-10.043 13.318-27.963 26.62-39.844L689.853 133.12c13.303-11.843 33.514-12.004 44.881-0.34 11.374 11.665 10.738 31.875-1.417 44.904l-172.21 184.504z m0 0"  horiz-adv-x="1024" />

    
    <glyph glyph-name="shaixuan" unicode="&#58961;" d="M904.918187 776.533333c-8.533333 12.8-21.333333 21.333333-38.4 21.333334H43.05152c-17.066667 0-29.866667-8.533333-38.4-21.333334-8.533333-12.8-4.266667-29.866667 4.266667-42.666666l294.4-315.733334v-354.133333c0-12.8 8.533333-29.866667 21.333333-34.133333l217.6-98.133334c4.266667-4.266667 12.8-4.266667 17.066667-4.266666 8.533333 0 17.066667 0 21.333333 4.266666 12.8 8.533333 21.333333 17.066667 21.333333 34.133334l12.8 456.533333L896.384853 738.133333c12.8 8.533333 17.066667 21.333333 8.533334 38.4z m-384-750.933333L384.384853 85.333333v307.2h145.066667l-8.533333-366.933333zM555.05152 469.333333H363.05152L132.65152 721.066667h644.266667L555.05152 469.333333zM712.918187 345.6H1024.384853v-68.266667h-311.466666v68.266667zM712.918187 200.533333H1024.384853v-68.266666h-311.466666v68.266666zM712.918187 59.733333H1024.384853v-68.266666h-311.466666v68.266666z"  horiz-adv-x="1024" />

    
    <glyph glyph-name="zailaiyidan" unicode="&#59223;" d="M640.455115 441.632605c0 15.688307-12.938684 28.457122-28.837792 28.457122H265.312086c-15.941064 0-28.838815-12.769838-28.838815-28.457122 0-15.687284 12.897751-28.415167 28.838815-28.415166h346.305237c15.900132 0 28.837792 12.727882 28.837792 28.415166zM265.312086 302.221462c-15.941064 0-28.838815-12.727882-28.838815-28.415167 0-15.728216 12.897751-28.414143 28.838815-28.414143h201.990411c15.941064 0 28.878724 12.684904 28.878724 28.414143 0 15.687284-12.938684 28.415167-28.878724 28.415167h-201.990411z m346.305237 335.693552H265.312086c-15.941064 0-28.838815-12.727882-28.838815-28.457122 0-15.645328 12.897751-28.415167 28.838815-28.415167h346.305237c15.899108 0 28.837792 12.769838 28.837792 28.415167 0 15.728216-12.93766 28.457122-28.837792 28.457122z m317.382511-477.852273H813.564755V273.806295c0 15.604396-12.938684 28.415167-28.837792 28.415167-15.85613 0-28.838815-12.81077-28.838815-28.415167v-113.743554H640.455115c-15.941064 0-28.837792-12.684904-28.837792-28.413119 0-15.687284 12.896728-28.415167 28.837792-28.415167H755.889171V-10.468167c0-15.687284 12.939707-28.415167 28.838815-28.415166 15.941064 0 28.837792 12.727882 28.837792 28.415166V103.235478h115.435079c15.98302 0 28.881794 12.727882 28.881795 28.415167-0.002047 15.727193-12.899798 28.412097-28.882818 28.412096z m-807.960619-85.243452V694.786279c0 31.375591 25.793456 56.830333 57.675584 56.830333h519.458879c31.839149 0 57.715493-25.454742 57.715493-56.830333V356.346173h57.675584V694.786279c0 62.749136-51.6698 113.659643-115.3921 113.659643H178.714799c-63.7223 0-115.435079-50.910507-115.435079-113.659643v-619.96699c0-62.790068 51.712779-113.701598 115.435079-113.701599H553.857828v56.873312H178.714799c-31.882128 0-57.675584 25.453718-57.675584 56.828287z"  horiz-adv-x="1024" />

    
    <glyph glyph-name="xuqiuqiangdan" unicode="&#58896;" d="M512.2 452.7m-166.2 0a166.2 166.2 0 1 1 332.4 0 166.2 166.2 0 1 1-332.4 0ZM512.2 262.7c-104.7 0-190 85.2-190 190s85.2 190 190 190c104.7 0 190-85.2 190-190s-85.3-190-190-190z m0 332.4c-78.5 0-142.4-63.9-142.4-142.4s63.9-142.4 142.4-142.4 142.4 63.9 142.4 142.4-63.9 142.4-142.4 142.4zM649.8-54.7c-5.7 0-11.4 2-16 6.2-9.7 8.8-10.4 23.8-1.6 33.6l171.1 188.3-128.6-24.5c-9.3-1.8-18.8 2.2-24.1 10-5.3 7.9-5.4 18.1-0.3 26.1l129.1 201.6c7.1 11 21.8 14.3 32.8 7.2s14.3-21.8 7.2-32.8l-99.3-155.1 144.2 27.5c10 1.9 20.2-2.8 25.2-11.7 5-8.9 3.7-20-3.1-27.6l-219-241c-4.7-5.1-11.1-7.8-17.6-7.8zM512.2 87.2c-49.3 0-97.2 9.7-142.3 28.7-43.5 18.4-82.6 44.8-116.2 78.3-33.5 33.6-59.9 72.6-78.3 116.2-19.1 45.1-28.7 92.9-28.7 142.2 0 49.3 9.7 97.2 28.7 142.3 18.4 43.5 44.8 82.6 78.3 116.2 33.6 33.6 72.6 59.9 116.2 78.3 45.1 19.1 92.9 28.7 142.3 28.7 49.3 0 97.2-9.7 142.3-28.7 43.5-18.4 82.6-44.8 116.2-78.3 33.6-33.6 59.9-72.6 78.3-116.2 19.1-45.1 28.7-92.9 28.7-142.3 0-13.1-10.6-23.8-23.8-23.8s-23.8 10.6-23.8 23.8c0 84.9-33.1 164.8-93.1 224.8-60.1 60.1-139.9 93.1-224.8 93.1s-164.8-33.1-224.8-93.1c-60.1-60.1-93.1-139.9-93.1-224.8s33.1-164.8 93.1-224.8c60-60.1 139.9-93.1 224.9-93.1 20.9 0 41.9 2.1 62.5 6.1 12.9 2.5 25.4-5.8 27.9-18.7 2.5-12.9-5.8-25.4-18.7-27.9-23.7-4.6-47.8-7-71.8-7z"  horiz-adv-x="1024" />

    
    <glyph glyph-name="dingdan1" unicode="&#58905;" d="M512 870.4c-268.8 0-486.4-217.6-486.4-486.4s217.6-486.4 486.4-486.4 486.4 217.6 486.4 486.4-217.6 486.4-486.4 486.4z m-48.128-235.52h91.648c15.36 0 27.648-12.288 27.648-27.648 0-15.36-12.288-27.648-27.648-27.648h-91.648c-15.36 0-27.648 12.288-27.648 27.648 0 15.36 12.288 27.648 27.648 27.648z m-74.752-128h256c10.24 0 18.432-8.192 18.432-18.432s-8.192-18.432-18.432-18.432h-256c-10.24 0-18.432 8.192-18.432 18.432s8.192 18.432 18.432 18.432z m256-145.92h-256c-10.24 0-18.432 8.192-18.432 18.432s8.192 18.432 18.432 18.432h256c10.24 0 18.432-8.192 18.432-18.432s-8.192-18.432-18.432-18.432z m18.432-91.648c0-10.24-8.192-18.432-18.432-18.432h-256c-10.24 0-18.432 8.192-18.432 18.432s8.192 18.432 18.432 18.432h256c10.24 0 18.432-8.192 18.432-18.432z m109.568-73.216c0-40.448-32.768-73.216-73.216-73.216h-365.568c-40.448 0-73.216 32.768-73.216 73.216v347.648c0 40.448 32.768 73.216 73.216 73.216h18.432c10.24 0 18.432-8.192 18.432-18.432s-8.192-18.432-18.432-18.432h-18.432c-19.968 0-36.352-16.384-36.352-36.352v-347.648c0-19.968 16.384-36.352 36.352-36.352h365.568c19.968 0 36.352 16.384 36.352 36.352v347.648c0 19.968-16.384 36.352-36.352 36.352h-18.432c-10.24 0-18.432 8.192-18.432 18.432s8.192 18.432 18.432 18.432h18.432c40.448 0 73.216-32.768 73.216-73.216v-347.648z"  horiz-adv-x="1024" />

    
    <glyph glyph-name="danxuan" unicode="&#58914;" d="M772.541901-128H232.605456c-120.700579 0-218.824978 98.1244-218.824979 218.824978V630.887548c0 120.700579 98.1244 218.824978 218.824979 218.824978h539.936445c120.700579 0 218.824978-98.1244 218.824978-218.824978v-539.936446c0.126124-120.700579-98.1244-218.951102-218.824978-218.951102zM232.605456 786.650573c-85.890381 0-155.763025-69.872644-155.763025-155.763025v-539.936446c0-85.890381 69.872644-155.763025 155.763025-155.763025h539.936445c85.890381 0 155.763025 69.872644 155.763025 155.763025V630.887548c0 85.890381-69.872644 155.763025-155.763025 155.763025H232.605456z"  horiz-adv-x="1024" />

    
    <glyph glyph-name="zhifu" unicode="&#58964;" d="M512 896C285.257 896 87.771 749.7139999999999 21.943 533.943c-3.657-9.143 1.828-20.114 12.8-21.943 9.143-3.657 20.114 1.829 21.943 12.8C118.857 724.114 301.714 859.429 512 859.429c254.171 0 460.8-199.315 475.429-449.829l-80.458 27.429c-9.142 3.657-20.114-1.829-23.771-10.972-3.657-9.143 1.829-20.114 10.971-23.771l106.058-34.743c1.828 0 3.657-1.829 5.485-1.829 3.657 0 7.315 1.829 10.972 3.657 5.485 3.658 7.314 9.143 7.314 14.629C1024 665.6 793.6 896 512 896zM992.914 256c-9.143 3.657-20.114-1.829-21.943-12.8C908.8 42.057000000000016 725.943-93.25699999999995 513.83-93.25699999999995 259.657-91.42999999999995 51.2 107.88599999999997 36.57 358.4l82.286-27.429c9.143-3.657 20.114 1.829 23.772 10.972 3.657 9.143-1.829 20.114-10.972 23.771L25.6 400.457c-7.314 3.657-12.8 1.829-18.286-1.828C3.657 394.97 0 389.486 0 384c0-281.6 230.4-512 513.829-512 226.742 0 424.228 146.286 491.885 362.057 1.829 9.143-3.657 20.114-12.8 21.943zM347.429 292.571c-10.972 0-18.286-7.314-18.286-18.285 0-10.972 7.314-18.286 18.286-18.286h146.285v-146.286c0-10.971 7.315-18.285 18.286-18.285s18.286 7.314 18.286 18.285V256H676.57c10.972 0 18.286 7.314 18.286 18.286 0 10.971-7.314 18.285-18.286 18.285H530.286v128H676.57c10.972 0 18.286 7.315 18.286 18.286 0 10.972-7.314 18.286-18.286 18.286H603.43l53.028 100.571c5.486 9.143 1.829 20.115-5.486 25.6s-18.285 1.829-21.942-7.314l-58.515-109.714c-3.657-3.657-3.657-5.486-3.657-9.143H449.83l-64 109.714c-5.486 9.143-16.458 10.972-25.6 7.314-9.143-5.485-10.972-16.457-7.315-25.6l53.029-91.428h-58.514c-10.972 0-18.286-7.314-18.286-18.286 0-10.971 7.314-18.286 18.286-18.286h146.285v-128H347.43z"  horiz-adv-x="1024" />

    
    <glyph glyph-name="xiaofei" unicode="&#58999;" d="M774.679636 156.014067v-30.143997c5.428027-0.351329 11.031719-1.018853 16.652977-1.018853 89.061808 0 178.141183-0.351329 267.202992 0.439161a45.848387 45.848387 0 0 1 27.210402 10.539859c44.759268 38.64615 89.096941 77.854425 132.521161 117.993721 14.545005 13.43832 26.086151 11.664111 41.228415 1.967441 10.258796-6.569845 23.345788-8.484586 34.623436-13.684251 15.107131-7.026573 30.881787-13.508586 44.16201-23.240389 14.527439-10.645258 18.690683-27.263102 9.45074-43.547184-15.651691-27.614431-29.862934-56.792274-49.941365-80.98125-55.984218-67.455098-114.480435-132.872489-172.642891-198.500677-4.707804-5.269929-14.42204-8.783216-21.817508-8.783216q-221.337039-0.73779-442.674077-0.087832c-9.380474 0-19.129844 2.986293-28.106291 6.359048-96.299178 36.555744-194.706328 51.83854-295.836275 24.364641-30.319661-8.238656-58.619182-23.890347-87.832158-36.011185-6.429314-2.670098-13.016726-5.059132-19.656837-7.131971-23.152557-7.184671-39.260975 1.510713-55.87882 18.848781-53.964078 56.31798-109.895596 110.668519-165.036625 165.95008-12.507299 12.524866-10.697957 45.391659 4.497007 54.122175 140.724684 80.805586 240.660114 137.615426 381.525329 218.069683 32.462766 18.532585 81.402844 31.180416 153.583312 13.613984 51.59261-12.559999 87.076802-22.520165 136.860068-41.140583 10.030432-3.74165 20.974319-7.131971 31.514179-7.202236 96.861304-0.544559 193.740175-0.316196 290.601479-0.316196 63.572916 0 96.070815-50.521057 70.265726-109.034841-9.327775-21.079718-21.71211-32.954626-48.465785-32.19927-77.292299 2.195804-154.707564 0.772923-232.070128 0.772923zM1072.518484 301.411422v22.186403V760.404714c0 26.823941-4.778069 31.514178-31.865507 31.619577h-130.641552c-22.836361 0-28.598151-5.76179-28.633284-28.879214-0.105399-68.825279 0-137.632992 0-207.758187H553.606093v21.079718V761.722196c0 25.453759-5.094265 30.354794-31.022318 30.407494-44.214708 0-88.394284 0.140531-132.608992 0-21.571578 0-27.456333-6.060419-27.4739-28.106291q-0.140531-169.656597 0-339.313194v-22.537731h-107.910589V896H1172.734977v-594.588578z"  horiz-adv-x="1352" />

    
    </font>
</defs>
</svg>
